<svg width="329" height="416" viewBox="0 0 329 416" fill="none" xmlns="http://www.w3.org/2000/svg">
<rect width="328.395" height="415.966" rx="15.9217" fill="#F9F9FF"/>
<path d="M164.476 248.587C150.973 248.587 137.47 248.587 123.967 248.587C123.307 248.587 122.639 248.587 121.976 248.519C118.596 248.203 117.237 245.926 118.678 242.847C119.929 240.188 121.294 237.598 122.619 234.968C128.874 222.585 135.129 210.204 141.384 197.825C141.577 197.447 141.779 197.069 142.004 196.708C143.579 194.183 146.138 193.828 148.153 196.006C149.575 197.53 150.778 199.241 152.046 200.893C158.49 209.315 164.935 217.74 171.379 226.169C174.194 229.836 177.739 230.035 181.046 226.737C182.686 225.1 184.29 223.419 185.95 221.796C188.944 218.868 192.342 219.044 194.787 222.458C199.694 229.31 204.479 236.253 209.287 243.174C209.663 243.717 209.95 244.315 210.14 244.948C210.606 246.537 209.946 247.817 208.334 248.24C207.324 248.482 206.286 248.594 205.247 248.573C191.664 248.596 178.074 248.6 164.476 248.587Z" fill="#D4D2E3"/>
<path d="M194.758 180.735C194.755 183.378 193.967 185.961 192.494 188.155C191.021 190.35 188.929 192.058 186.485 193.062C184.04 194.067 181.352 194.323 178.762 193.798C176.171 193.273 173.795 191.99 171.934 190.113C170.074 188.236 168.812 185.849 168.31 183.254C167.808 180.659 168.087 177.974 169.113 175.538C170.139 173.102 171.865 171.026 174.072 169.572C176.28 168.118 178.869 167.353 181.512 167.372C185.031 167.417 188.392 168.843 190.87 171.343C193.348 173.842 194.744 177.216 194.758 180.735Z" fill="#D4D2E3"/>
</svg>
