<svg width="260" height="195" viewBox="0 0 260 195" fill="none" xmlns="http://www.w3.org/2000/svg">
<path d="M130.552 194.983C139.062 194.983 147.489 193.306 155.351 190.047C163.213 186.788 170.357 182.012 176.374 175.99C182.392 169.969 187.165 162.82 190.422 154.952C193.678 147.085 195.354 138.653 195.354 130.137C195.354 121.621 193.678 113.189 190.422 105.321C187.165 97.4534 182.392 90.3048 176.374 84.2832C170.357 78.2617 163.213 73.4851 155.351 70.2262C147.489 66.9674 139.062 65.2901 130.552 65.2901L130.552 130.137V194.983Z" fill="#FFCA09"/>
<path d="M195.038 0.127014C186.528 0.127014 178.102 1.80432 170.24 5.06317C162.377 8.32202 155.234 13.0986 149.216 19.1202C143.199 25.1417 138.426 32.2904 135.169 40.1579C131.912 48.0255 130.236 56.4579 130.236 64.9737L195.038 64.9737V0.127014Z" fill="#ED4F81"/>
<path d="M195.038 65.2901C203.548 65.2901 211.975 66.9674 219.837 70.2263C227.699 73.4851 234.843 78.2617 240.86 84.2832C246.878 90.3048 251.651 97.4535 254.907 105.321C258.164 113.189 259.84 121.621 259.84 130.137L195.038 130.137V65.2901Z" fill="#18BAEB"/>
<path d="M130.236 65.2898C94.2725 65.2898 65.1181 36.0906 65.1181 0.126816C101.082 0.126816 130.236 29.326 130.236 65.2898Z" fill="#FFCA09"/>
<path d="M0 65.2898C35.9638 65.2898 65.1181 36.0906 65.1181 0.126816C29.1544 0.126816 0 29.326 0 65.2898Z" fill="#18BAEB"/>
<path d="M130.236 65.2898C94.2725 65.2898 65.1181 94.489 65.1181 130.453C101.082 130.453 130.236 101.254 130.236 65.2898Z" fill="#848688"/>
<path d="M0 65.2898C35.9638 65.2898 65.1181 94.489 65.1181 130.453C29.1544 130.453 0 101.254 0 65.2898Z" fill="#ED4F81"/>
</svg>
