<svg width="657" height="819" viewBox="0 0 657 819" fill="none" xmlns="http://www.w3.org/2000/svg">
<path d="M187.546 187.84C187.546 206.37 182.055 224.485 171.767 239.892C161.479 255.299 146.856 267.308 129.748 274.399C112.64 281.491 93.8148 283.346 75.653 279.731C57.4911 276.116 40.8084 267.193 27.7144 254.09C14.6205 240.987 5.70338 224.292 2.09076 206.118C-1.52185 187.944 0.332273 169.106 7.41867 151.986C14.5051 134.866 26.5055 120.233 41.9023 109.938C57.2992 99.6433 75.401 94.1484 93.9187 94.1484L93.9187 187.84H187.546Z" fill="#ED4F81"/>
<path d="M188.002 187.383C206.52 187.383 224.622 181.888 240.019 171.593C255.416 161.298 267.416 146.665 274.502 129.546C281.589 112.426 283.443 93.5875 279.83 75.4131C276.218 57.2388 267.301 40.5445 254.207 27.4416C241.113 14.3386 224.43 5.41535 206.268 1.80025C188.106 -1.81485 169.281 0.0405553 152.173 7.13184C135.065 14.2231 120.442 26.2318 110.154 41.6393C99.8666 57.0467 94.3755 75.161 94.3755 93.6914L188.002 93.6914L188.002 187.383Z" fill="#FFCA09"/>
<path d="M468.427 0C456.131 1.46721e-07 443.956 2.4234 432.597 7.13183C421.238 11.8403 410.916 18.7415 402.222 27.4416C393.528 36.1416 386.632 46.4701 381.927 57.8373C377.221 69.2044 374.8 81.3877 374.8 93.6914C374.8 105.995 377.221 118.178 381.927 129.546C386.632 140.913 393.528 151.241 402.222 159.941C410.916 168.641 421.238 175.543 432.597 180.251C443.956 184.959 456.131 187.383 468.427 187.383L468.427 93.6914V0Z" fill="#FFCA09"/>
<path d="M375.256 281.531C387.552 281.531 399.727 279.108 411.086 274.399C422.445 269.691 432.767 262.79 441.461 254.09C450.155 245.39 457.051 235.061 461.756 223.694C466.462 212.327 468.883 200.144 468.883 187.84L375.256 187.84L375.256 281.531Z" fill="#ED4F81"/>
<path d="M375.256 187.383C362.961 187.383 350.786 184.959 339.427 180.251C328.068 175.543 317.746 168.641 309.052 159.941C300.358 151.241 293.462 140.913 288.756 129.546C284.051 118.178 281.629 105.995 281.629 93.6914L375.256 93.6914L375.256 187.383Z" fill="#18BAEB"/>
<ellipse cx="282.086" cy="218.918" rx="62.5702" ry="62.6133" fill="#848688"/>
<path d="M468.883 187.383C520.844 187.383 562.967 229.571 562.967 281.532C511.006 281.532 468.883 239.344 468.883 187.383Z" fill="#FFCA09"/>
<path d="M657.051 187.383C605.09 187.383 562.967 229.571 562.967 281.532C614.928 281.532 657.051 239.344 657.051 187.383Z" fill="#18BAEB"/>
<path d="M468.883 187.383C520.844 187.383 562.967 145.196 562.967 93.2349C511.006 93.2349 468.883 135.422 468.883 187.383Z" fill="#848688"/>
<path d="M657.051 187.383C605.09 187.383 562.967 145.196 562.967 93.2349C614.928 93.2349 657.051 135.422 657.051 187.383Z" fill="#ED4F81"/>
<path d="M844.304 187.84C844.304 206.37 838.813 224.485 828.525 239.892C818.238 255.299 803.615 267.308 786.507 274.399C769.399 281.491 750.574 283.346 732.412 279.731C714.25 276.116 697.567 267.193 684.473 254.09C671.379 240.987 662.462 224.292 658.85 206.118C655.237 187.944 657.091 169.106 664.177 151.986C671.264 134.866 683.264 120.233 698.661 109.938C714.058 99.6433 732.16 94.1484 750.677 94.1484V187.84H844.304Z" fill="#ED4F81"/>
<path d="M187.546 631.16C187.546 612.63 182.055 594.515 171.767 579.108C161.479 563.701 146.856 551.692 129.748 544.601C112.64 537.509 93.8148 535.654 75.653 539.269C57.4911 542.884 40.8084 551.807 27.7144 564.91C14.6205 578.013 5.70338 594.708 2.09076 612.882C-1.52185 631.056 0.332273 649.894 7.41867 667.014C14.5051 684.134 26.5055 698.767 41.9023 709.062C57.2992 719.357 75.401 724.852 93.9187 724.852L93.9187 631.16H187.546Z" fill="#ED4F81"/>
<path d="M188.002 631.617C206.52 631.617 224.622 637.112 240.019 647.407C255.416 657.702 267.416 672.334 274.502 689.454C281.589 706.574 283.443 725.412 279.83 743.586C276.218 761.761 267.301 778.455 254.207 791.558C241.113 804.661 224.43 813.584 206.268 817.199C188.106 820.814 169.281 818.959 152.173 811.868C135.065 804.776 120.442 792.768 110.154 777.36C99.8666 761.953 94.3755 743.839 94.3755 725.308L188.002 725.308L188.002 631.617Z" fill="#FFCA09"/>
<path d="M468.427 819C456.131 819 443.956 816.576 432.597 811.868C421.238 807.159 410.916 800.258 402.222 791.558C393.528 782.858 386.632 772.529 381.927 761.162C377.221 749.795 374.8 737.612 374.8 725.308C374.8 713.004 377.221 700.821 381.927 689.454C386.632 678.087 393.528 667.758 402.222 659.058C410.916 650.358 421.238 643.457 432.597 638.749C443.956 634.04 456.131 631.617 468.427 631.617L468.427 725.308V819Z" fill="#FFCA09"/>
<path d="M375.256 537.469C387.552 537.469 399.727 539.892 411.086 544.601C422.445 549.309 432.767 556.21 441.461 564.91C450.155 573.61 457.051 583.939 461.756 595.306C466.462 606.673 468.883 618.856 468.883 631.16L375.256 631.16L375.256 537.469Z" fill="#ED4F81"/>
<path d="M375.256 631.617C362.961 631.617 350.786 634.04 339.427 638.749C328.068 643.457 317.746 650.358 309.052 659.058C300.358 667.758 293.462 678.087 288.756 689.454C284.051 700.821 281.629 713.004 281.629 725.308L375.256 725.308L375.256 631.617Z" fill="#18BAEB"/>
<ellipse cx="62.5702" cy="62.6133" rx="62.5702" ry="62.6133" transform="matrix(1 0 0 -1 219.516 662.695)" fill="#848688"/>
<path d="M468.883 631.617C520.844 631.617 562.967 589.43 562.967 537.469C511.006 537.469 468.883 579.656 468.883 631.617Z" fill="#FFCA09"/>
<path d="M657.051 631.617C605.09 631.617 562.967 589.43 562.967 537.469C614.928 537.469 657.051 579.656 657.051 631.617Z" fill="#18BAEB"/>
<path d="M468.883 631.617C520.844 631.617 562.967 673.805 562.967 725.766C511.006 725.766 468.883 683.578 468.883 631.617Z" fill="#848688"/>
<path d="M657.051 631.617C605.09 631.617 562.967 673.805 562.967 725.766C614.928 725.766 657.051 683.578 657.051 631.617Z" fill="#ED4F81"/>
<path d="M844.304 631.16C844.304 612.63 838.813 594.515 828.525 579.108C818.238 563.701 803.615 551.692 786.507 544.601C769.399 537.509 750.574 535.654 732.412 539.269C714.25 542.884 697.567 551.807 684.473 564.91C671.379 578.013 662.462 594.708 658.85 612.882C655.237 631.056 657.091 649.894 664.177 667.014C671.264 684.134 683.264 698.767 698.661 709.062C714.058 719.357 732.16 724.852 750.677 724.852V631.16H844.304Z" fill="#ED4F81"/>
<path d="M469.797 375.223C469.797 356.692 475.288 338.578 485.576 323.171C495.864 307.763 510.486 295.754 527.594 288.663C544.702 281.572 563.527 279.716 581.689 283.332C599.851 286.947 616.534 295.87 629.628 308.973C642.722 322.076 651.639 338.77 655.252 356.944C658.864 375.119 657.01 393.957 649.924 411.077C642.837 428.197 630.837 442.829 615.44 453.124C600.043 463.419 581.941 468.914 563.424 468.914V375.223H469.797Z" fill="#ED4F81"/>
<path d="M469.34 375.679C450.822 375.679 432.72 381.174 417.323 391.469C401.927 401.764 389.926 416.397 382.84 433.516C375.753 450.636 373.899 469.475 377.512 487.649C381.125 505.823 390.042 522.517 403.136 535.62C416.23 548.723 432.912 557.647 451.074 561.262C469.236 564.877 488.061 563.021 505.169 555.93C522.277 548.839 536.9 536.83 547.188 521.423C557.476 506.015 562.967 487.901 562.967 469.371L469.34 469.371L469.34 375.679Z" fill="#FFCA09"/>
<path d="M188.916 563.062C201.211 563.062 213.386 560.639 224.745 555.93C236.105 551.222 246.426 544.32 255.12 535.62C263.814 526.92 270.711 516.592 275.416 505.225C280.121 493.858 282.543 481.674 282.543 469.371C282.543 457.067 280.121 444.884 275.416 433.516C270.711 422.149 263.814 411.821 255.12 403.121C246.426 394.421 236.105 387.519 224.745 382.811C213.386 378.103 201.211 375.679 188.916 375.679L188.916 469.371L188.916 563.062Z" fill="#FFCA09"/>
<path d="M282.086 281.531C269.791 281.531 257.616 283.955 246.256 288.663C234.897 293.372 224.576 300.273 215.882 308.973C207.187 317.673 200.291 328.001 195.586 339.369C190.881 350.736 188.459 362.919 188.459 375.223L282.086 375.223L282.086 281.531Z" fill="#ED4F81"/>
<path d="M282.086 375.679C294.381 375.679 306.556 378.103 317.915 382.811C329.275 387.519 339.596 394.421 348.29 403.121C356.984 411.821 363.881 422.149 368.586 433.516C373.291 444.884 375.713 457.067 375.713 469.371L282.086 469.371L282.086 375.679Z" fill="#18BAEB"/>
<ellipse cx="375.256" cy="344.144" rx="62.5702" ry="62.6133" transform="rotate(180 375.256 344.144)" fill="#848688"/>
<path d="M188.459 375.68C136.498 375.68 94.3752 333.492 94.3752 281.531C146.336 281.531 188.459 323.719 188.459 375.68Z" fill="#FFCA09"/>
<path d="M0.291748 375.68C52.2527 375.68 94.3754 333.492 94.3754 281.531C42.4144 281.531 0.291748 323.719 0.291748 375.68Z" fill="#18BAEB"/>
<path d="M188.459 375.68C136.498 375.68 94.3752 417.867 94.3752 469.828C146.336 469.828 188.459 427.641 188.459 375.68Z" fill="#848688"/>
<path d="M0.291748 375.68C52.2527 375.68 94.3754 417.867 94.3754 469.828C42.4144 469.828 0.291748 427.641 0.291748 375.68Z" fill="#ED4F81"/>
</svg>
