<svg width="16" height="17" viewBox="0 0 16 17" fill="none" xmlns="http://www.w3.org/2000/svg">
<path d="M13.6749 6.98123L8.67489 2.43748C8.49054 2.26882 8.24974 2.17529 7.99989 2.17529C7.75004 2.17529 7.50923 2.26882 7.32489 2.43748L2.32489 6.98123C2.22252 7.07488 2.14076 7.18882 2.0848 7.31578C2.02885 7.44275 1.99993 7.57998 1.99989 7.71873V13.475C1.99582 13.7271 2.08483 13.9719 2.24989 14.1625C2.34357 14.269 2.45897 14.3542 2.58834 14.4125C2.7177 14.4707 2.85803 14.5005 2.99989 14.5H5.99989C6.1325 14.5 6.25967 14.4473 6.35344 14.3535C6.44721 14.2598 6.49989 14.1326 6.49989 14V11C6.49989 10.8674 6.55257 10.7402 6.64634 10.6464C6.7401 10.5527 6.86728 10.5 6.99989 10.5H8.99989C9.1325 10.5 9.25968 10.5527 9.35344 10.6464C9.44721 10.7402 9.49989 10.8674 9.49989 11V14C9.49989 14.1326 9.55257 14.2598 9.64634 14.3535C9.7401 14.4473 9.86728 14.5 9.99989 14.5H12.9999C13.1657 14.5014 13.3292 14.4606 13.4749 14.3812C13.6334 14.2949 13.7657 14.1676 13.8581 14.0125C13.9505 13.8575 13.9994 13.6804 13.9999 13.5V7.71873C13.9998 7.57998 13.9709 7.44275 13.915 7.31578C13.859 7.18882 13.7773 7.07488 13.6749 6.98123Z" fill="#18BAEB"/>
</svg>
