<svg width="16" height="17" viewBox="0 0 16 17" fill="none" xmlns="http://www.w3.org/2000/svg">
<path d="M8.25 2C6.59341 2.0033 5.00562 2.66284 3.83423 3.83423C2.66284 5.00562 2.0033 6.59341 2 8.25V13.5188C2 13.779 2.10338 14.0286 2.2874 14.2126C2.47142 14.3966 2.72101 14.5 2.98125 14.5H8.25C9.9076 14.5 11.4973 13.8415 12.6694 12.6694C13.8415 11.4973 14.5 9.9076 14.5 8.25C14.5 6.5924 13.8415 5.00269 12.6694 3.83058C11.4973 2.65848 9.9076 2 8.25 2ZM10 10H6.25C6.11739 10 5.99021 9.94732 5.89645 9.85355C5.80268 9.75979 5.75 9.63261 5.75 9.5C5.75 9.36739 5.80268 9.24021 5.89645 9.14645C5.99021 9.05268 6.11739 9 6.25 9H10C10.1326 9 10.2598 9.05268 10.3536 9.14645C10.4473 9.24021 10.5 9.36739 10.5 9.5C10.5 9.63261 10.4473 9.75979 10.3536 9.85355C10.2598 9.94732 10.1326 10 10 10ZM10 8H6.25C6.11739 8 5.99021 7.94732 5.89645 7.85355C5.80268 7.75979 5.75 7.63261 5.75 7.5C5.75 7.36739 5.80268 7.24021 5.89645 7.14645C5.99021 7.05268 6.11739 7 6.25 7H10C10.1326 7 10.2598 7.05268 10.3536 7.14645C10.4473 7.24021 10.5 7.36739 10.5 7.5C10.5 7.63261 10.4473 7.75979 10.3536 7.85355C10.2598 7.94732 10.1326 8 10 8Z" fill="#1E1E1E" fill-opacity="0.6"/>
</svg>
