<svg width="584" height="234" viewBox="0 0 584 234" fill="none" xmlns="http://www.w3.org/2000/svg">
<rect width="583.328" height="233.27" rx="20" fill="#F2F1FA"/>
<path d="M455.762 151.875C444.043 151.875 432.324 151.875 420.605 151.875C420.032 151.875 419.452 151.875 418.877 151.816C415.944 151.542 414.764 149.565 416.015 146.893C417.101 144.586 418.285 142.338 419.435 140.055C424.864 129.308 430.292 118.563 435.721 107.82C435.889 107.491 436.064 107.163 436.259 106.85C437.626 104.659 439.847 104.35 441.596 106.24C442.83 107.563 443.874 109.048 444.974 110.482C450.567 117.791 456.16 125.103 461.753 132.418C464.196 135.601 467.273 135.774 470.143 132.912C471.567 131.491 472.958 130.032 474.399 128.623C476.998 126.082 479.946 126.235 482.068 129.198C486.327 135.145 490.48 141.171 494.653 147.177C494.979 147.648 495.229 148.167 495.393 148.716C495.798 150.096 495.225 151.206 493.826 151.574C492.949 151.784 492.048 151.881 491.146 151.862C479.358 151.882 467.563 151.886 455.762 151.875Z" fill="#D4D2E3"/>
<path d="M482.044 92.9873C482.041 95.2812 481.357 97.5225 480.078 99.4271C478.8 101.332 476.985 102.814 474.863 103.686C472.741 104.557 470.409 104.78 468.16 104.324C465.912 103.868 463.85 102.755 462.235 101.126C460.62 99.4973 459.525 97.4254 459.09 95.1733C458.654 92.9213 458.896 90.5905 459.787 88.4765C460.677 86.3625 462.175 84.5605 464.091 83.2988C466.006 82.0372 468.254 81.3729 470.547 81.39C473.602 81.4288 476.519 82.6663 478.669 84.8357C480.82 87.0051 482.032 89.9327 482.044 92.9873Z" fill="#D4D2E3"/>
<path d="M51.184 90.8984V79.6984H52.528V90.8984H51.184ZM56.5027 90.8984V79.6984H57.8468L63.8148 88.6744V79.6984H65.1588V90.8984H63.8148L57.8468 81.9224V90.8984H56.5027ZM69.134 90.8984V79.6984H70.478L76.446 88.6744V79.6984H77.79V90.8984H76.446L70.478 81.9224V90.8984H69.134ZM86.8532 91.0904C85.7546 91.0904 84.7892 90.8504 83.9572 90.3704C83.1359 89.8798 82.4906 89.1971 82.0212 88.3224C81.5626 87.4478 81.3332 86.4398 81.3332 85.2984C81.3332 84.1571 81.5626 83.1544 82.0212 82.2904C82.4906 81.4158 83.1359 80.7331 83.9572 80.2424C84.7892 79.7518 85.7546 79.5064 86.8532 79.5064C87.9626 79.5064 88.9279 79.7518 89.7492 80.2424C90.5812 80.7331 91.2266 81.4158 91.6852 82.2904C92.1439 83.1544 92.3733 84.1571 92.3733 85.2984C92.3733 86.4398 92.1439 87.4478 91.6852 88.3224C91.2266 89.1971 90.5812 89.8798 89.7492 90.3704C88.9279 90.8504 87.9626 91.0904 86.8532 91.0904ZM86.8532 89.9064C87.6746 89.9064 88.3946 89.7251 89.0132 89.3624C89.6426 88.9891 90.1279 88.4611 90.4692 87.7784C90.8212 87.0851 90.9972 86.2584 90.9972 85.2984C90.9972 84.3384 90.8212 83.5171 90.4692 82.8344C90.1279 82.1518 89.6426 81.6291 89.0132 81.2664C88.3946 80.8931 87.6746 80.7064 86.8532 80.7064C86.0319 80.7064 85.3066 80.8931 84.6772 81.2664C84.0586 81.6291 83.5732 82.1518 83.2212 82.8344C82.8799 83.5171 82.7092 84.3384 82.7092 85.2984C82.7092 86.2584 82.8799 87.0851 83.2212 87.7784C83.5732 88.4611 84.0586 88.9891 84.6772 89.3624C85.3066 89.7251 86.0319 89.9064 86.8532 89.9064ZM98.8506 90.8984L94.6426 79.6984H96.0986L99.6346 89.4744L103.203 79.6984H104.627L100.419 90.8984H98.8506ZM105.511 90.8984L109.639 79.6984H111.063L115.175 90.8984H113.751L112.727 88.0184H107.959L106.919 90.8984H105.511ZM108.359 86.9304H112.327L110.343 81.3944L108.359 86.9304ZM119.799 90.8984V80.8024H116.455V79.6984H124.487V80.8024H121.143V90.8984H119.799ZM127.728 90.8984V79.6984H129.072V90.8984H127.728ZM138.135 91.0904C137.036 91.0904 136.071 90.8504 135.239 90.3704C134.417 89.8798 133.772 89.1971 133.303 88.3224C132.844 87.4478 132.615 86.4398 132.615 85.2984C132.615 84.1571 132.844 83.1544 133.303 82.2904C133.772 81.4158 134.417 80.7331 135.239 80.2424C136.071 79.7518 137.036 79.5064 138.135 79.5064C139.244 79.5064 140.209 79.7518 141.031 80.2424C141.863 80.7331 142.508 81.4158 142.967 82.2904C143.425 83.1544 143.655 84.1571 143.655 85.2984C143.655 86.4398 143.425 87.4478 142.967 88.3224C142.508 89.1971 141.863 89.8798 141.031 90.3704C140.209 90.8504 139.244 91.0904 138.135 91.0904ZM138.135 89.9064C138.956 89.9064 139.676 89.7251 140.295 89.3624C140.924 88.9891 141.409 88.4611 141.751 87.7784C142.103 87.0851 142.279 86.2584 142.279 85.2984C142.279 84.3384 142.103 83.5171 141.751 82.8344C141.409 82.1518 140.924 81.6291 140.295 81.2664C139.676 80.8931 138.956 80.7064 138.135 80.7064C137.313 80.7064 136.588 80.8931 135.959 81.2664C135.34 81.6291 134.855 82.1518 134.503 82.8344C134.161 83.5171 133.991 84.3384 133.991 85.2984C133.991 86.2584 134.161 87.0851 134.503 87.7784C134.855 88.4611 135.34 88.9891 135.959 89.3624C136.588 89.7251 137.313 89.9064 138.135 89.9064ZM147.193 90.8984V79.6984H148.537L154.505 88.6744V79.6984H155.849V90.8984H154.505L148.537 81.9224V90.8984H147.193ZM165.659 90.8984V79.6984H167.003V84.6424H172.811V79.6984H174.155V90.8984H172.811V85.7464H167.003V90.8984H165.659ZM182.166 91.0904C181.398 91.0904 180.7 90.9411 180.07 90.6424C179.452 90.3331 178.956 89.8584 178.582 89.2184C178.209 88.5784 178.022 87.7624 178.022 86.7704V79.6984H179.366V86.7864C179.366 87.8744 179.628 88.6638 180.15 89.1544C180.673 89.6451 181.356 89.8904 182.198 89.8904C183.041 89.8904 183.718 89.6451 184.23 89.1544C184.742 88.6638 184.998 87.8744 184.998 86.7864V79.6984H186.342V86.7704C186.342 87.7624 186.156 88.5784 185.782 89.2184C185.409 89.8584 184.908 90.3331 184.278 90.6424C183.649 90.9411 182.945 91.0904 182.166 91.0904ZM190.218 90.8984V79.6984H194.154C194.944 79.6984 195.594 79.8264 196.106 80.0824C196.629 80.3278 197.018 80.6691 197.274 81.1064C197.53 81.5331 197.658 82.0131 197.658 82.5464C197.658 83.2718 197.461 83.8424 197.066 84.2584C196.682 84.6744 196.218 84.9624 195.674 85.1224C196.09 85.1971 196.469 85.3624 196.81 85.6184C197.152 85.8744 197.418 86.1944 197.61 86.5784C197.813 86.9624 197.914 87.3838 197.914 87.8424C197.914 88.4078 197.776 88.9251 197.498 89.3944C197.221 89.8531 196.81 90.2211 196.266 90.4984C195.722 90.7651 195.061 90.8984 194.282 90.8984H190.218ZM191.562 84.5944H194.058C194.773 84.5944 195.322 84.4291 195.706 84.0984C196.09 83.7571 196.282 83.2878 196.282 82.6904C196.282 82.1251 196.09 81.6718 195.706 81.3304C195.333 80.9891 194.768 80.8184 194.01 80.8184H191.562V84.5944ZM191.562 89.7784H194.138C194.906 89.7784 195.498 89.6024 195.914 89.2504C196.33 88.8878 196.538 88.3864 196.538 87.7464C196.538 87.1171 196.32 86.6158 195.882 86.2424C195.445 85.8584 194.853 85.6664 194.106 85.6664H191.562V89.7784Z" fill="#9795B5"/>
<path d="M51.496 122.373V106.973H56.754C58.558 106.973 60.0393 107.296 61.198 107.941C62.3713 108.572 63.2367 109.466 63.794 110.625C64.366 111.769 64.652 113.118 64.652 114.673C64.652 116.228 64.366 117.584 63.794 118.743C63.2367 119.887 62.3713 120.782 61.198 121.427C60.0393 122.058 58.558 122.373 56.754 122.373H51.496ZM54.312 119.953H56.622C57.9127 119.953 58.932 119.748 59.68 119.337C60.428 118.912 60.9633 118.31 61.286 117.533C61.6087 116.741 61.77 115.788 61.77 114.673C61.77 113.573 61.6087 112.627 61.286 111.835C60.9633 111.043 60.428 110.434 59.68 110.009C58.932 109.584 57.9127 109.371 56.622 109.371H54.312V119.953ZM68.5886 109.767C68.0753 109.767 67.65 109.613 67.3126 109.305C66.99 108.997 66.8286 108.608 66.8286 108.139C66.8286 107.67 66.99 107.288 67.3126 106.995C67.65 106.687 68.0753 106.533 68.5886 106.533C69.102 106.533 69.52 106.687 69.8426 106.995C70.18 107.288 70.3486 107.67 70.3486 108.139C70.3486 108.608 70.18 108.997 69.8426 109.305C69.52 109.613 69.102 109.767 68.5886 109.767ZM67.1806 122.373V111.461H69.9966V122.373H67.1806ZM77.4459 122.637C76.4779 122.637 75.6272 122.483 74.8939 122.175C74.1605 121.852 73.5739 121.412 73.1339 120.855C72.6939 120.298 72.4299 119.652 72.3419 118.919H75.1799C75.2679 119.344 75.5025 119.711 75.8839 120.019C76.2799 120.312 76.7859 120.459 77.4019 120.459C78.0179 120.459 78.4652 120.334 78.7439 120.085C79.0372 119.836 79.1839 119.55 79.1839 119.227C79.1839 118.758 78.9785 118.442 78.5679 118.281C78.1572 118.105 77.5852 117.936 76.8519 117.775C76.3825 117.672 75.9059 117.548 75.4219 117.401C74.9379 117.254 74.4905 117.071 74.0799 116.851C73.6839 116.616 73.3612 116.323 73.1119 115.971C72.8625 115.604 72.7379 115.157 72.7379 114.629C72.7379 113.661 73.1192 112.847 73.8819 112.187C74.6592 111.527 75.7445 111.197 77.1379 111.197C78.4285 111.197 79.4552 111.498 80.2179 112.099C80.9952 112.7 81.4572 113.529 81.6039 114.585H78.9419C78.7805 113.778 78.1719 113.375 77.1159 113.375C76.5879 113.375 76.1772 113.478 75.8839 113.683C75.6052 113.888 75.4659 114.145 75.4659 114.453C75.4659 114.776 75.6785 115.032 76.1039 115.223C76.5292 115.414 77.0939 115.59 77.7979 115.751C78.5605 115.927 79.2572 116.125 79.8879 116.345C80.5332 116.55 81.0465 116.866 81.4279 117.291C81.8092 117.702 81.9999 118.296 81.9999 119.073C82.0145 119.748 81.8385 120.356 81.4719 120.899C81.1052 121.442 80.5772 121.867 79.8879 122.175C79.1985 122.483 78.3845 122.637 77.4459 122.637ZM89.8405 122.637C88.7258 122.637 87.7431 122.395 86.8925 121.911C86.0418 121.427 85.3671 120.752 84.8685 119.887C84.3845 119.022 84.1425 118.032 84.1425 116.917C84.1425 115.802 84.3845 114.812 84.8685 113.947C85.3671 113.082 86.0418 112.407 86.8925 111.923C87.7431 111.439 88.7258 111.197 89.8405 111.197C91.2338 111.197 92.4071 111.564 93.3605 112.297C94.3138 113.016 94.9225 114.013 95.1865 115.289H92.2165C92.0698 114.761 91.7765 114.35 91.3365 114.057C90.9111 113.749 90.4051 113.595 89.8185 113.595C89.0411 113.595 88.3811 113.888 87.8385 114.475C87.2958 115.062 87.0245 115.876 87.0245 116.917C87.0245 117.958 87.2958 118.772 87.8385 119.359C88.3811 119.946 89.0411 120.239 89.8185 120.239C90.4051 120.239 90.9111 120.092 91.3365 119.799C91.7765 119.506 92.0698 119.088 92.2165 118.545H95.1865C94.9225 119.777 94.3138 120.767 93.3605 121.515C92.4071 122.263 91.2338 122.637 89.8405 122.637ZM102.922 122.637C101.866 122.637 100.913 122.395 100.062 121.911C99.2259 121.427 98.5585 120.76 98.0599 119.909C97.5759 119.044 97.3339 118.046 97.3339 116.917C97.3339 115.788 97.5832 114.798 98.0819 113.947C98.5805 113.082 99.2479 112.407 100.084 111.923C100.935 111.439 101.888 111.197 102.944 111.197C103.985 111.197 104.924 111.439 105.76 111.923C106.611 112.407 107.278 113.082 107.762 113.947C108.261 114.798 108.51 115.788 108.51 116.917C108.51 118.046 108.261 119.044 107.762 119.909C107.278 120.76 106.611 121.427 105.76 121.911C104.909 122.395 103.963 122.637 102.922 122.637ZM102.922 120.195C103.655 120.195 104.293 119.924 104.836 119.381C105.379 118.824 105.65 118.002 105.65 116.917C105.65 115.832 105.379 115.018 104.836 114.475C104.293 113.918 103.663 113.639 102.944 113.639C102.196 113.639 101.551 113.918 101.008 114.475C100.48 115.018 100.216 115.832 100.216 116.917C100.216 118.002 100.48 118.824 101.008 119.381C101.551 119.924 102.189 120.195 102.922 120.195ZM113.439 122.373L109.435 111.461H112.383L115.155 119.711L117.927 111.461H120.875L116.849 122.373H113.439ZM127.416 122.637C126.316 122.637 125.34 122.402 124.49 121.933C123.639 121.464 122.972 120.804 122.488 119.953C122.004 119.102 121.762 118.12 121.762 117.005C121.762 115.876 121.996 114.871 122.466 113.991C122.95 113.111 123.61 112.429 124.446 111.945C125.296 111.446 126.294 111.197 127.438 111.197C128.508 111.197 129.454 111.432 130.276 111.901C131.097 112.37 131.735 113.016 132.19 113.837C132.659 114.644 132.894 115.546 132.894 116.543C132.894 116.704 132.886 116.873 132.872 117.049C132.872 117.225 132.864 117.408 132.85 117.599H124.556C124.614 118.45 124.908 119.117 125.436 119.601C125.978 120.085 126.631 120.327 127.394 120.327C127.966 120.327 128.442 120.202 128.824 119.953C129.22 119.689 129.513 119.352 129.704 118.941H132.564C132.358 119.63 132.014 120.261 131.53 120.833C131.06 121.39 130.474 121.83 129.77 122.153C129.08 122.476 128.296 122.637 127.416 122.637ZM127.438 113.485C126.748 113.485 126.14 113.683 125.612 114.079C125.084 114.46 124.746 115.047 124.6 115.839H130.034C129.99 115.12 129.726 114.548 129.242 114.123C128.758 113.698 128.156 113.485 127.438 113.485ZM135.262 122.373V111.461H137.77L138.034 113.507C138.43 112.803 138.965 112.246 139.64 111.835C140.329 111.41 141.136 111.197 142.06 111.197V114.167H141.268C140.652 114.167 140.102 114.262 139.618 114.453C139.134 114.644 138.753 114.974 138.474 115.443C138.21 115.912 138.078 116.565 138.078 117.401V122.373H135.262ZM156.509 122.637C154.969 122.637 153.62 122.3 152.461 121.625C151.317 120.95 150.415 120.019 149.755 118.831C149.11 117.628 148.787 116.242 148.787 114.673C148.787 113.104 149.11 111.725 149.755 110.537C150.415 109.334 151.317 108.396 152.461 107.721C153.62 107.046 154.969 106.709 156.509 106.709C158.034 106.709 159.376 107.046 160.535 107.721C161.694 108.396 162.596 109.334 163.241 110.537C163.886 111.725 164.209 113.104 164.209 114.673C164.209 116.242 163.886 117.628 163.241 118.831C162.596 120.019 161.694 120.95 160.535 121.625C159.376 122.3 158.034 122.637 156.509 122.637ZM156.509 120.107C157.976 120.107 159.142 119.623 160.007 118.655C160.887 117.687 161.327 116.36 161.327 114.673C161.327 112.986 160.887 111.659 160.007 110.691C159.142 109.723 157.976 109.239 156.509 109.239C155.042 109.239 153.869 109.723 152.989 110.691C152.109 111.659 151.669 112.986 151.669 114.673C151.669 116.36 152.109 117.687 152.989 118.655C153.869 119.623 155.042 120.107 156.509 120.107ZM170.721 122.637C169.357 122.637 168.301 122.212 167.553 121.361C166.82 120.51 166.453 119.264 166.453 117.621V111.461H169.247V117.357C169.247 118.296 169.438 119.014 169.819 119.513C170.201 120.012 170.802 120.261 171.623 120.261C172.401 120.261 173.039 119.982 173.537 119.425C174.051 118.868 174.307 118.09 174.307 117.093V111.461H177.123V122.373H174.637L174.417 120.525C174.08 121.17 173.589 121.684 172.943 122.065C172.313 122.446 171.572 122.637 170.721 122.637ZM180.014 122.373V111.461H182.522L182.786 113.507C183.182 112.803 183.717 112.246 184.392 111.835C185.081 111.41 185.888 111.197 186.812 111.197V114.167H186.02C185.404 114.167 184.854 114.262 184.37 114.453C183.886 114.644 183.505 114.974 183.226 115.443C182.962 115.912 182.83 116.565 182.83 117.401V122.373H180.014ZM50.506 150.373L56.138 134.973H59.306L64.938 150.373H61.946L60.714 146.809H54.708L53.454 150.373H50.506ZM55.478 144.609H59.944L57.7 138.207L55.478 144.609ZM71.6862 150.637C70.5715 150.637 69.5888 150.395 68.7382 149.911C67.8875 149.427 67.2128 148.752 66.7142 147.887C66.2302 147.022 65.9882 146.032 65.9882 144.917C65.9882 143.802 66.2302 142.812 66.7142 141.947C67.2128 141.082 67.8875 140.407 68.7382 139.923C69.5888 139.439 70.5715 139.197 71.6862 139.197C73.0795 139.197 74.2528 139.564 75.2062 140.297C76.1595 141.016 76.7682 142.013 77.0322 143.289H74.0622C73.9155 142.761 73.6222 142.35 73.1822 142.057C72.7568 141.749 72.2508 141.595 71.6642 141.595C70.8868 141.595 70.2268 141.888 69.6842 142.475C69.1415 143.062 68.8702 143.876 68.8702 144.917C68.8702 145.958 69.1415 146.772 69.6842 147.359C70.2268 147.946 70.8868 148.239 71.6642 148.239C72.2508 148.239 72.7568 148.092 73.1822 147.799C73.6222 147.506 73.9155 147.088 74.0622 146.545H77.0322C76.7682 147.777 76.1595 148.767 75.2062 149.515C74.2528 150.263 73.0795 150.637 71.6862 150.637ZM84.8776 150.637C83.7629 150.637 82.7802 150.395 81.9296 149.911C81.0789 149.427 80.4042 148.752 79.9056 147.887C79.4216 147.022 79.1796 146.032 79.1796 144.917C79.1796 143.802 79.4216 142.812 79.9056 141.947C80.4042 141.082 81.0789 140.407 81.9296 139.923C82.7802 139.439 83.7629 139.197 84.8776 139.197C86.2709 139.197 87.4442 139.564 88.3976 140.297C89.3509 141.016 89.9596 142.013 90.2236 143.289H87.2536C87.1069 142.761 86.8136 142.35 86.3736 142.057C85.9482 141.749 85.4422 141.595 84.8556 141.595C84.0782 141.595 83.4182 141.888 82.8756 142.475C82.3329 143.062 82.0616 143.876 82.0616 144.917C82.0616 145.958 82.3329 146.772 82.8756 147.359C83.4182 147.946 84.0782 148.239 84.8556 148.239C85.4422 148.239 85.9482 148.092 86.3736 147.799C86.8136 147.506 87.1069 147.088 87.2536 146.545H90.2236C89.9596 147.777 89.3509 148.767 88.3976 149.515C87.4442 150.263 86.2709 150.637 84.8776 150.637ZM98.025 150.637C96.925 150.637 95.9496 150.402 95.099 149.933C94.2483 149.464 93.581 148.804 93.097 147.953C92.613 147.102 92.371 146.12 92.371 145.005C92.371 143.876 92.6056 142.871 93.075 141.991C93.559 141.111 94.219 140.429 95.055 139.945C95.9056 139.446 96.903 139.197 98.047 139.197C99.1176 139.197 100.064 139.432 100.885 139.901C101.706 140.37 102.344 141.016 102.799 141.837C103.268 142.644 103.503 143.546 103.503 144.543C103.503 144.704 103.496 144.873 103.481 145.049C103.481 145.225 103.474 145.408 103.459 145.599H95.165C95.2236 146.45 95.517 147.117 96.045 147.601C96.5876 148.085 97.2403 148.327 98.003 148.327C98.575 148.327 99.0516 148.202 99.433 147.953C99.829 147.689 100.122 147.352 100.313 146.941H103.173C102.968 147.63 102.623 148.261 102.139 148.833C101.67 149.39 101.083 149.83 100.379 150.153C99.6896 150.476 98.905 150.637 98.025 150.637ZM98.047 141.485C97.3576 141.485 96.749 141.683 96.221 142.079C95.693 142.46 95.3556 143.047 95.209 143.839H100.643C100.599 143.12 100.335 142.548 99.851 142.123C99.367 141.698 98.7656 141.485 98.047 141.485ZM110.381 150.637C109.413 150.637 108.563 150.483 107.829 150.175C107.096 149.852 106.509 149.412 106.069 148.855C105.629 148.298 105.365 147.652 105.277 146.919H108.115C108.203 147.344 108.438 147.711 108.819 148.019C109.215 148.312 109.721 148.459 110.337 148.459C110.953 148.459 111.401 148.334 111.679 148.085C111.973 147.836 112.119 147.55 112.119 147.227C112.119 146.758 111.914 146.442 111.503 146.281C111.093 146.105 110.521 145.936 109.787 145.775C109.318 145.672 108.841 145.548 108.357 145.401C107.873 145.254 107.426 145.071 107.015 144.851C106.619 144.616 106.297 144.323 106.047 143.971C105.798 143.604 105.673 143.157 105.673 142.629C105.673 141.661 106.055 140.847 106.817 140.187C107.595 139.527 108.68 139.197 110.073 139.197C111.364 139.197 112.391 139.498 113.153 140.099C113.931 140.7 114.393 141.529 114.539 142.585H111.877C111.716 141.778 111.107 141.375 110.051 141.375C109.523 141.375 109.113 141.478 108.819 141.683C108.541 141.888 108.401 142.145 108.401 142.453C108.401 142.776 108.614 143.032 109.039 143.223C109.465 143.414 110.029 143.59 110.733 143.751C111.496 143.927 112.193 144.125 112.823 144.345C113.469 144.55 113.982 144.866 114.363 145.291C114.745 145.702 114.935 146.296 114.935 147.073C114.95 147.748 114.774 148.356 114.407 148.899C114.041 149.442 113.513 149.867 112.823 150.175C112.134 150.483 111.32 150.637 110.381 150.637ZM122.666 150.637C121.61 150.637 120.657 150.395 119.806 149.911C118.97 149.427 118.303 148.76 117.804 147.909C117.32 147.044 117.078 146.046 117.078 144.917C117.078 143.788 117.327 142.798 117.826 141.947C118.325 141.082 118.992 140.407 119.828 139.923C120.679 139.439 121.632 139.197 122.688 139.197C123.729 139.197 124.668 139.439 125.504 139.923C126.355 140.407 127.022 141.082 127.506 141.947C128.005 142.798 128.254 143.788 128.254 144.917C128.254 146.046 128.005 147.044 127.506 147.909C127.022 148.76 126.355 149.427 125.504 149.911C124.653 150.395 123.707 150.637 122.666 150.637ZM122.666 148.195C123.399 148.195 124.037 147.924 124.58 147.381C125.123 146.824 125.394 146.002 125.394 144.917C125.394 143.832 125.123 143.018 124.58 142.475C124.037 141.918 123.407 141.639 122.688 141.639C121.94 141.639 121.295 141.918 120.752 142.475C120.224 143.018 119.96 143.832 119.96 144.917C119.96 146.002 120.224 146.824 120.752 147.381C121.295 147.924 121.933 148.195 122.666 148.195ZM130.772 150.373V139.461H133.28L133.544 141.507C133.94 140.803 134.475 140.246 135.15 139.835C135.839 139.41 136.646 139.197 137.57 139.197V142.167H136.778C136.162 142.167 135.612 142.262 135.128 142.453C134.644 142.644 134.262 142.974 133.984 143.443C133.72 143.912 133.588 144.565 133.588 145.401V150.373H130.772ZM141.012 137.767C140.499 137.767 140.074 137.613 139.736 137.305C139.414 136.997 139.252 136.608 139.252 136.139C139.252 135.67 139.414 135.288 139.736 134.995C140.074 134.687 140.499 134.533 141.012 134.533C141.526 134.533 141.944 134.687 142.266 134.995C142.604 135.288 142.772 135.67 142.772 136.139C142.772 136.608 142.604 136.997 142.266 137.305C141.944 137.613 141.526 137.767 141.012 137.767ZM139.604 150.373V139.461H142.42V150.373H139.604ZM150.662 150.637C149.562 150.637 148.586 150.402 147.736 149.933C146.885 149.464 146.218 148.804 145.734 147.953C145.25 147.102 145.008 146.12 145.008 145.005C145.008 143.876 145.242 142.871 145.712 141.991C146.196 141.111 146.856 140.429 147.692 139.945C148.542 139.446 149.54 139.197 150.684 139.197C151.754 139.197 152.7 139.432 153.522 139.901C154.343 140.37 154.981 141.016 155.436 141.837C155.905 142.644 156.14 143.546 156.14 144.543C156.14 144.704 156.132 144.873 156.118 145.049C156.118 145.225 156.11 145.408 156.096 145.599H147.802C147.86 146.45 148.154 147.117 148.682 147.601C149.224 148.085 149.877 148.327 150.64 148.327C151.212 148.327 151.688 148.202 152.07 147.953C152.466 147.689 152.759 147.352 152.95 146.941H155.81C155.604 147.63 155.26 148.261 154.776 148.833C154.306 149.39 153.72 149.83 153.016 150.153C152.326 150.476 151.542 150.637 150.662 150.637ZM150.684 141.485C149.994 141.485 149.386 141.683 148.858 142.079C148.33 142.46 147.992 143.047 147.846 143.839H153.28C153.236 143.12 152.972 142.548 152.488 142.123C152.004 141.698 151.402 141.485 150.684 141.485ZM163.018 150.637C162.05 150.637 161.199 150.483 160.466 150.175C159.733 149.852 159.146 149.412 158.706 148.855C158.266 148.298 158.002 147.652 157.914 146.919H160.752C160.84 147.344 161.075 147.711 161.456 148.019C161.852 148.312 162.358 148.459 162.974 148.459C163.59 148.459 164.037 148.334 164.316 148.085C164.609 147.836 164.756 147.55 164.756 147.227C164.756 146.758 164.551 146.442 164.14 146.281C163.729 146.105 163.157 145.936 162.424 145.775C161.955 145.672 161.478 145.548 160.994 145.401C160.51 145.254 160.063 145.071 159.652 144.851C159.256 144.616 158.933 144.323 158.684 143.971C158.435 143.604 158.31 143.157 158.31 142.629C158.31 141.661 158.691 140.847 159.454 140.187C160.231 139.527 161.317 139.197 162.71 139.197C164.001 139.197 165.027 139.498 165.79 140.099C166.567 140.7 167.029 141.529 167.176 142.585H164.514C164.353 141.778 163.744 141.375 162.688 141.375C162.16 141.375 161.749 141.478 161.456 141.683C161.177 141.888 161.038 142.145 161.038 142.453C161.038 142.776 161.251 143.032 161.676 143.223C162.101 143.414 162.666 143.59 163.37 143.751C164.133 143.927 164.829 144.125 165.46 144.345C166.105 144.55 166.619 144.866 167 145.291C167.381 145.702 167.572 146.296 167.572 147.073C167.587 147.748 167.411 148.356 167.044 148.899C166.677 149.442 166.149 149.867 165.46 150.175C164.771 150.483 163.957 150.637 163.018 150.637ZM182.349 150.637C180.794 150.637 179.46 150.307 178.345 149.647C177.23 148.972 176.372 148.041 175.771 146.853C175.17 145.65 174.869 144.264 174.869 142.695C174.869 141.126 175.17 139.74 175.771 138.537C176.372 137.334 177.23 136.396 178.345 135.721C179.46 135.046 180.794 134.709 182.349 134.709C184.197 134.709 185.708 135.171 186.881 136.095C188.069 137.004 188.81 138.288 189.103 139.945H186.001C185.81 139.109 185.4 138.456 184.769 137.987C184.153 137.503 183.332 137.261 182.305 137.261C180.882 137.261 179.768 137.745 178.961 138.713C178.154 139.681 177.751 141.008 177.751 142.695C177.751 144.382 178.154 145.709 178.961 146.677C179.768 147.63 180.882 148.107 182.305 148.107C183.332 148.107 184.153 147.887 184.769 147.447C185.4 146.992 185.81 146.369 186.001 145.577H189.103C188.81 147.161 188.069 148.4 186.881 149.295C185.708 150.19 184.197 150.637 182.349 150.637ZM196.766 150.637C195.71 150.637 194.756 150.395 193.906 149.911C193.07 149.427 192.402 148.76 191.904 147.909C191.42 147.044 191.178 146.046 191.178 144.917C191.178 143.788 191.427 142.798 191.926 141.947C192.424 141.082 193.092 140.407 193.928 139.923C194.778 139.439 195.732 139.197 196.788 139.197C197.829 139.197 198.768 139.439 199.604 139.923C200.454 140.407 201.122 141.082 201.606 141.947C202.104 142.798 202.354 143.788 202.354 144.917C202.354 146.046 202.104 147.044 201.606 147.909C201.122 148.76 200.454 149.427 199.604 149.911C198.753 150.395 197.807 150.637 196.766 150.637ZM196.766 148.195C197.499 148.195 198.137 147.924 198.68 147.381C199.222 146.824 199.494 146.002 199.494 144.917C199.494 143.832 199.222 143.018 198.68 142.475C198.137 141.918 197.506 141.639 196.788 141.639C196.04 141.639 195.394 141.918 194.852 142.475C194.324 143.018 194.06 143.832 194.06 144.917C194.06 146.002 194.324 146.824 194.852 147.381C195.394 147.924 196.032 148.195 196.766 148.195ZM204.871 150.373V134.533H207.687V150.373H204.871ZM210.565 150.373V134.533H213.381V150.373H210.565ZM221.56 150.637C220.46 150.637 219.485 150.402 218.634 149.933C217.783 149.464 217.116 148.804 216.632 147.953C216.148 147.102 215.906 146.12 215.906 145.005C215.906 143.876 216.141 142.871 216.61 141.991C217.094 141.111 217.754 140.429 218.59 139.945C219.441 139.446 220.438 139.197 221.582 139.197C222.653 139.197 223.599 139.432 224.42 139.901C225.241 140.37 225.879 141.016 226.334 141.837C226.803 142.644 227.038 143.546 227.038 144.543C227.038 144.704 227.031 144.873 227.016 145.049C227.016 145.225 227.009 145.408 226.994 145.599H218.7C218.759 146.45 219.052 147.117 219.58 147.601C220.123 148.085 220.775 148.327 221.538 148.327C222.11 148.327 222.587 148.202 222.968 147.953C223.364 147.689 223.657 147.352 223.848 146.941H226.708C226.503 147.63 226.158 148.261 225.674 148.833C225.205 149.39 224.618 149.83 223.914 150.153C223.225 150.476 222.44 150.637 221.56 150.637ZM221.582 141.485C220.893 141.485 220.284 141.683 219.756 142.079C219.228 142.46 218.891 143.047 218.744 143.839H224.178C224.134 143.12 223.87 142.548 223.386 142.123C222.902 141.698 222.301 141.485 221.582 141.485ZM234.753 150.637C233.638 150.637 232.655 150.395 231.805 149.911C230.954 149.427 230.279 148.752 229.781 147.887C229.297 147.022 229.055 146.032 229.055 144.917C229.055 143.802 229.297 142.812 229.781 141.947C230.279 141.082 230.954 140.407 231.805 139.923C232.655 139.439 233.638 139.197 234.753 139.197C236.146 139.197 237.319 139.564 238.273 140.297C239.226 141.016 239.835 142.013 240.099 143.289H237.129C236.982 142.761 236.689 142.35 236.249 142.057C235.823 141.749 235.317 141.595 234.731 141.595C233.953 141.595 233.293 141.888 232.751 142.475C232.208 143.062 231.937 143.876 231.937 144.917C231.937 145.958 232.208 146.772 232.751 147.359C233.293 147.946 233.953 148.239 234.731 148.239C235.317 148.239 235.823 148.092 236.249 147.799C236.689 147.506 236.982 147.088 237.129 146.545H240.099C239.835 147.777 239.226 148.767 238.273 149.515C237.319 150.263 236.146 150.637 234.753 150.637ZM247.31 150.373C246.166 150.373 245.249 150.094 244.56 149.537C243.87 148.98 243.526 147.99 243.526 146.567V141.815H241.656V139.461H243.526L243.856 136.535H246.342V139.461H249.29V141.815H246.342V146.589C246.342 147.117 246.452 147.484 246.672 147.689C246.906 147.88 247.302 147.975 247.86 147.975H249.224V150.373H247.31ZM253.225 137.767C252.712 137.767 252.287 137.613 251.949 137.305C251.627 136.997 251.465 136.608 251.465 136.139C251.465 135.67 251.627 135.288 251.949 134.995C252.287 134.687 252.712 134.533 253.225 134.533C253.739 134.533 254.157 134.687 254.479 134.995C254.817 135.288 254.985 135.67 254.985 136.139C254.985 136.608 254.817 136.997 254.479 137.305C254.157 137.613 253.739 137.767 253.225 137.767ZM251.817 150.373V139.461H254.633V150.373H251.817ZM262.809 150.637C261.753 150.637 260.799 150.395 259.949 149.911C259.113 149.427 258.445 148.76 257.947 147.909C257.463 147.044 257.221 146.046 257.221 144.917C257.221 143.788 257.47 142.798 257.969 141.947C258.467 141.082 259.135 140.407 259.971 139.923C260.821 139.439 261.775 139.197 262.831 139.197C263.872 139.197 264.811 139.439 265.647 139.923C266.497 140.407 267.165 141.082 267.649 141.947C268.147 142.798 268.397 143.788 268.397 144.917C268.397 146.046 268.147 147.044 267.649 147.909C267.165 148.76 266.497 149.427 265.647 149.911C264.796 150.395 263.85 150.637 262.809 150.637ZM262.809 148.195C263.542 148.195 264.18 147.924 264.723 147.381C265.265 146.824 265.537 146.002 265.537 144.917C265.537 143.832 265.265 143.018 264.723 142.475C264.18 141.918 263.549 141.639 262.831 141.639C262.083 141.639 261.437 141.918 260.895 142.475C260.367 143.018 260.103 143.832 260.103 144.917C260.103 146.002 260.367 146.824 260.895 147.381C261.437 147.924 262.075 148.195 262.809 148.195ZM270.914 150.373V139.461H273.4L273.62 141.309C273.958 140.664 274.442 140.15 275.072 139.769C275.718 139.388 276.473 139.197 277.338 139.197C278.688 139.197 279.736 139.622 280.484 140.473C281.232 141.324 281.606 142.57 281.606 144.213V150.373H278.79V144.477C278.79 143.538 278.6 142.82 278.218 142.321C277.837 141.822 277.243 141.573 276.436 141.573C275.644 141.573 274.992 141.852 274.478 142.409C273.98 142.966 273.73 143.744 273.73 144.741V150.373H270.914Z" fill="#5D5A88"/>
</svg>
