<svg width="16" height="17" viewBox="0 0 16 17" fill="none" xmlns="http://www.w3.org/2000/svg">
<path d="M13.8562 8.85625L11.2312 11.4812C11.1353 11.573 11.0078 11.6244 10.875 11.625C10.8106 11.6252 10.7469 11.6124 10.6875 11.5875C10.5953 11.5502 10.5164 11.4863 10.4607 11.4039C10.405 11.3215 10.3752 11.2244 10.375 11.125V9H6.5C6.36739 9 6.24021 8.94732 6.14645 8.85355C6.05268 8.75979 6 8.63261 6 8.5C6 8.36739 6.05268 8.24021 6.14645 8.14645C6.24021 8.05268 6.36739 8 6.5 8H10.375V5.875C10.3752 5.77557 10.405 5.67847 10.4607 5.59608C10.5164 5.5137 10.5953 5.44978 10.6875 5.4125C10.7788 5.37624 10.8786 5.36698 10.975 5.38582C11.0714 5.40465 11.1603 5.4508 11.2312 5.51875L13.8562 8.14375C13.9501 8.23855 14.0028 8.36658 14.0028 8.5C14.0028 8.63342 13.9501 8.76145 13.8562 8.85625ZM6.5 13.5H3V3.5H6.5C6.63261 3.5 6.75979 3.44732 6.85355 3.35355C6.94732 3.25979 7 3.13261 7 3C7 2.86739 6.94732 2.74021 6.85355 2.64645C6.75979 2.55268 6.63261 2.5 6.5 2.5H3C2.73478 2.5 2.48043 2.60536 2.29289 2.79289C2.10536 2.98043 2 3.23478 2 3.5V13.5C2 13.7652 2.10536 14.0196 2.29289 14.2071C2.48043 14.3946 2.73478 14.5 3 14.5H6.5C6.63261 14.5 6.75979 14.4473 6.85355 14.3536C6.94732 14.2598 7 14.1326 7 14C7 13.8674 6.94732 13.7402 6.85355 13.6464C6.75979 13.5527 6.63261 13.5 6.5 13.5Z" fill="#F10A0A"/>
</svg>
