<svg width="127" height="35" viewBox="0 0 127 35" fill="none" xmlns="http://www.w3.org/2000/svg">
<mask id="mask0_30_1115" style="mask-type:luminance" maskUnits="userSpaceOnUse" x="0" y="0" width="28" height="35">
<path d="M27.1889 0H0V35H27.1889V0Z" fill="white"/>
</mask>
<g mask="url(#mask0_30_1115)">
<path d="M13.5321 0.0625L14.0518 0.270833L16.9619 1.93751L19.0406 3.1875L19.1444 4.4375V27.5625L18.1052 28.2917L17.4815 28.5001L17.3776 27.875L17.4815 16L16.3383 16.625L14.3635 17.7708L14.2596 32.6667L14.7793 32.4583L19.7681 29.5416L22.6782 27.875L25.4844 26.2083L25.5883 9.22917L25.0686 9.02083L23.4057 8.08333L21.6389 7.04167L21.3271 6.83333V5.06249L21.9507 5.27083L24.445 6.72917L27.1473 8.29167V27.1458L25.3804 28.1875L22.99 29.5416L20.4955 30.9999L17.8972 32.4583L15.6107 33.8125L13.636 34.9583L12.4928 34.3334L9.99838 32.8751L8.2315 31.8334L8.02365 31.4167V22.6667L8.12758 7.5625L9.58263 6.72917H9.68657V19.0209L12.8046 17.1458L12.9085 2.35417L7.08824 5.68749L4.59387 7.14583L1.8916 8.70833H1.68373L1.78767 25.7916L4.38599 27.25L5.84105 28.0833V29.9584L4.38599 29.1249L2.09947 27.875L0.020813 26.6249V7.97916L1.37194 7.14583L4.07419 5.58334L7.08824 3.8125L9.79051 2.25L11.5574 1.20833L13.5321 0.0625Z" fill="#FFCA09"/>
<path d="M14.4674 2.45831L15.0909 2.66665L17.4814 4.12498V14.125L16.5461 14.75L14.5713 15.8958H14.4674V2.45831Z" fill="white"/>
<path d="M12.3888 19.125H12.5966V32.4582L11.973 32.25L9.89439 30.9999L9.68652 30.7917V20.7916L11.3494 19.75L12.3888 19.125Z" fill="white"/>
<path d="M21.3271 9.54169L21.7427 9.64586L23.1978 10.4792V25.2709L21.6389 26.2083H21.5349L21.4309 11.5208L21.3271 11.4167V9.54169Z" fill="#ED4F81"/>
<path d="M5.32129 9.125H5.63308V23.0834H5.84095V25.5834L5.32129 25.375L3.97015 24.5417V9.85417L5.32129 9.125Z" fill="#ED4F81"/>
</g>
<path d="M35.2174 12.215C34.6049 12.215 34.1014 12.0381 33.7066 11.6842C33.3256 11.3167 33.1349 10.8675 33.1349 10.3367C33.1349 9.79224 33.3256 9.34307 33.7066 8.98918C34.1014 8.62168 34.6049 8.43793 35.2174 8.43793C35.8164 8.43793 36.3064 8.62168 36.6874 8.98918C37.0822 9.34307 37.2795 9.79224 37.2795 10.3367C37.2795 10.8675 37.0822 11.3167 36.6874 11.6842C36.3064 12.0381 35.8164 12.215 35.2174 12.215ZM36.9529 13.3992V24.7917H33.4616V13.3992H36.9529ZM46.4247 13.2767C47.7585 13.2767 48.8202 13.7122 49.6097 14.5833C50.4127 15.4408 50.8143 16.625 50.8143 18.1358V24.7917H47.3435V18.6054C47.3435 17.8432 47.146 17.2511 46.7514 16.8292C46.3566 16.4073 45.8258 16.1963 45.1589 16.1963C44.4919 16.1963 43.961 16.4073 43.5664 16.8292C43.1716 17.2511 42.9743 17.8432 42.9743 18.6054V24.7917H39.4831V13.3992H42.9743V14.91C43.3281 14.4064 43.8046 14.0117 44.4035 13.7258C45.0023 13.4264 45.676 13.2767 46.4247 13.2767ZM52.5461 19.075C52.5461 17.9044 52.764 16.8769 53.1994 15.9921C53.6486 15.1073 54.2544 14.4268 55.0165 13.9504C55.7788 13.474 56.6294 13.2358 57.5686 13.2358C58.3173 13.2358 58.9978 13.3924 59.6103 13.7054C60.2365 14.0185 60.7265 14.4404 61.0803 14.9713V9.68334H64.5715V24.7917H61.0803V23.1583C60.7536 23.7027 60.284 24.1383 59.6715 24.465C59.0727 24.7917 58.3717 24.955 57.5686 24.955C56.6294 24.955 55.7788 24.7169 55.0165 24.2404C54.2544 23.7504 53.6486 23.0631 53.1994 22.1783C52.764 21.28 52.5461 20.2456 52.5461 19.075ZM61.0803 19.0954C61.0803 18.2244 60.8353 17.5369 60.3453 17.0333C59.869 16.5298 59.2836 16.2779 58.5894 16.2779C57.8953 16.2779 57.3032 16.5298 56.8132 17.0333C56.3369 17.5233 56.0986 18.2039 56.0986 19.075C56.0986 19.9461 56.3369 20.6402 56.8132 21.1575C57.3032 21.6611 57.8953 21.9129 58.5894 21.9129C59.2836 21.9129 59.869 21.6611 60.3453 21.1575C60.8353 20.6539 61.0803 19.9665 61.0803 19.0954ZM78.3469 13.3992V24.7917H74.8557V23.24C74.5017 23.7436 74.0186 24.1519 73.4061 24.465C72.8072 24.7644 72.1403 24.9142 71.4053 24.9142C70.5342 24.9142 69.7651 24.7236 69.0982 24.3425C68.4313 23.9477 67.914 23.3829 67.5465 22.6479C67.179 21.9129 66.9953 21.0486 66.9953 20.055V13.3992H70.4661V19.5854C70.4661 20.3477 70.6634 20.9398 71.0582 21.3617C71.453 21.7836 71.9838 21.9946 72.6507 21.9946C73.3313 21.9946 73.8688 21.7836 74.2636 21.3617C74.6584 20.9398 74.8557 20.3477 74.8557 19.5854V13.3992H78.3469ZM85.4893 24.955C84.4957 24.955 83.6109 24.7848 82.8351 24.4446C82.0593 24.1044 81.4468 23.6415 80.9976 23.0563C80.5484 22.4573 80.2966 21.7904 80.2422 21.0554H83.6926C83.7334 21.4502 83.9172 21.77 84.2438 22.015C84.5705 22.26 84.972 22.3825 85.4484 22.3825C85.884 22.3825 86.2174 22.3008 86.4488 22.1375C86.6938 21.9606 86.8163 21.736 86.8163 21.4638C86.8163 21.1371 86.6462 20.8989 86.3059 20.7492C85.9657 20.5858 85.4144 20.4089 84.6522 20.2183C83.8355 20.0277 83.1549 19.8304 82.6105 19.6263C82.0661 19.4085 81.5965 19.075 81.2018 18.6258C80.807 18.1631 80.6097 17.5438 80.6097 16.7679C80.6097 16.1146 80.7866 15.5225 81.1405 14.9917C81.508 14.4472 82.0388 14.0185 82.733 13.7054C83.4407 13.3924 84.2778 13.2358 85.2443 13.2358C86.6734 13.2358 87.7963 13.5897 88.613 14.2975C89.4432 15.0052 89.9197 15.9444 90.0422 17.115H86.8163C86.762 16.7202 86.5849 16.4073 86.2855 16.1758C85.9997 15.9444 85.6186 15.8288 85.1422 15.8288C84.7338 15.8288 84.4207 15.9104 84.203 16.0738C83.9853 16.2235 83.8763 16.4344 83.8763 16.7067C83.8763 17.0333 84.0465 17.2783 84.3868 17.4417C84.7407 17.605 85.2851 17.7683 86.0201 17.9317C86.864 18.1494 87.5513 18.3673 88.0822 18.585C88.613 18.7892 89.0757 19.1294 89.4705 19.6058C89.8788 20.0686 90.0899 20.6948 90.1034 21.4842C90.1034 22.1511 89.9128 22.75 89.5318 23.2808C89.1643 23.7981 88.6266 24.2065 87.9188 24.5058C87.2247 24.8052 86.4149 24.955 85.4893 24.955ZM98.5889 21.8313V24.7917H96.8126C95.5468 24.7917 94.5601 24.4854 93.8522 23.8729C93.1445 23.2469 92.7906 22.2327 92.7906 20.8308V16.2983H91.4022V13.3992H92.7906V10.6225H96.2818V13.3992H98.5685V16.2983H96.2818V20.8717C96.2818 21.2119 96.3635 21.4569 96.5268 21.6067C96.6901 21.7564 96.9624 21.8313 97.3435 21.8313H98.5889ZM104.025 15.2979C104.433 14.6719 104.944 14.1818 105.556 13.8279C106.169 13.4604 106.849 13.2767 107.598 13.2767V16.9721H106.638C105.767 16.9721 105.114 17.1627 104.678 17.5438C104.243 17.9113 104.025 18.5646 104.025 19.5038V24.7917H100.534V13.3992H104.025V15.2979ZM114.452 24.955C113.336 24.955 112.329 24.7169 111.431 24.2404C110.546 23.764 109.845 23.0835 109.328 22.1988C108.824 21.314 108.572 20.2796 108.572 19.0954C108.572 17.9248 108.831 16.8973 109.348 16.0125C109.865 15.1142 110.573 14.4268 111.472 13.9504C112.37 13.474 113.377 13.2358 114.493 13.2358C115.609 13.2358 116.617 13.474 117.515 13.9504C118.413 14.4268 119.121 15.1142 119.638 16.0125C120.155 16.8973 120.414 17.9248 120.414 19.0954C120.414 20.266 120.149 21.3004 119.618 22.1988C119.101 23.0835 118.386 23.764 117.474 24.2404C116.576 24.7169 115.569 24.955 114.452 24.955ZM114.452 21.9333C115.119 21.9333 115.684 21.6883 116.147 21.1983C116.623 20.7083 116.862 20.0073 116.862 19.0954C116.862 18.1835 116.63 17.4825 116.167 16.9925C115.718 16.5025 115.16 16.2575 114.493 16.2575C113.813 16.2575 113.248 16.5025 112.799 16.9925C112.349 17.4689 112.125 18.1698 112.125 19.0954C112.125 20.0073 112.343 20.7083 112.778 21.1983C113.227 21.6883 113.785 21.9333 114.452 21.9333Z" fill="#FFCA09"/>
<path d="M123.9 24.955C123.287 24.955 122.783 24.7781 122.389 24.4241C122.008 24.0566 121.817 23.6075 121.817 23.0766C121.817 22.5322 122.008 22.0762 122.389 21.7087C122.783 21.3412 123.287 21.1575 123.9 21.1575C124.498 21.1575 124.988 21.3412 125.37 21.7087C125.764 22.0762 125.962 22.5322 125.962 23.0766C125.962 23.6075 125.764 24.0566 125.37 24.4241C124.988 24.7781 124.498 24.955 123.9 24.955Z" fill="#ED4F81"/>
</svg>
