<svg width="50" height="50" viewBox="0 0 50 50" fill="none" xmlns="http://www.w3.org/2000/svg">
<circle cx="25" cy="25" r="25" fill="#F9F9FF"/>
<path d="M25.0605 32.5597C22.1307 32.5597 19.201 32.5597 16.2712 32.5597C16.1281 32.5597 15.9831 32.5597 15.8394 32.5449C15.1059 32.4765 14.811 31.9823 15.1238 31.3143C15.3952 30.7375 15.6913 30.1755 15.9788 29.6049C17.3359 26.9182 18.6931 24.2319 20.0502 21.546C20.0921 21.4639 20.1359 21.3819 20.1847 21.3035C20.5264 20.7557 21.0816 20.6786 21.519 21.1512C21.8274 21.4818 22.0884 21.8532 22.3635 22.2116C23.7618 24.0388 25.16 25.8668 26.5583 27.6956C27.169 28.4914 27.9383 28.5346 28.6557 27.819C29.0116 27.4637 29.3595 27.0991 29.7198 26.7469C30.3694 26.1115 31.1066 26.1497 31.6371 26.8906C32.7018 28.3773 33.74 29.8837 34.7832 31.3852C34.8647 31.503 34.9271 31.6329 34.9682 31.7701C35.0694 32.115 34.9263 32.3926 34.5765 32.4845C34.3572 32.537 34.132 32.5613 33.9066 32.5567C30.9595 32.5616 28.0108 32.5626 25.0605 32.5597Z" fill="#D4D2E3"/>
<path d="M31.6309 17.8379C31.6301 18.4114 31.4591 18.9717 31.1395 19.4478C30.82 19.924 30.3662 20.2945 29.8358 20.5125C29.3053 20.7304 28.7221 20.786 28.1601 20.6721C27.5981 20.5581 27.0825 20.2799 26.6788 19.8727C26.2751 19.4654 26.0014 18.9474 25.8924 18.3844C25.7834 17.8214 25.8441 17.2387 26.0666 16.7102C26.2892 16.1817 26.6637 15.7312 27.1427 15.4158C27.6216 15.1004 28.1834 14.9343 28.7568 14.9386C29.5204 14.9483 30.2497 15.2576 30.7873 15.8C31.3249 16.3423 31.6279 17.0742 31.6309 17.8379Z" fill="#D4D2E3"/>
</svg>
