<svg width="16" height="17" viewBox="0 0 16 17" fill="none" xmlns="http://www.w3.org/2000/svg">
<path d="M6.46659 15.1667L6.13325 13.0667C5.92214 12.9889 5.69992 12.8834 5.46659 12.75C5.23325 12.6167 5.0277 12.4778 4.84992 12.3334L2.88325 13.2334L1.33325 10.5L3.13325 9.18337C3.11103 9.08337 3.09714 8.96949 3.09159 8.84171C3.08603 8.71393 3.08325 8.60004 3.08325 8.50004C3.08325 8.40004 3.08603 8.28615 3.09159 8.15837C3.09714 8.0306 3.11103 7.91671 3.13325 7.81671L1.33325 6.50004L2.88325 3.76671L4.84992 4.66671C5.0277 4.52226 5.23325 4.38337 5.46659 4.25004C5.69992 4.11671 5.92214 4.01671 6.13325 3.95004L6.46659 1.83337H9.53325L9.86659 3.93337C10.0777 4.01115 10.3027 4.11393 10.5416 4.24171C10.7805 4.36949 10.9833 4.51115 11.1499 4.66671L13.1166 3.76671L14.6666 6.50004L12.8666 7.78337C12.8888 7.89449 12.9027 8.01393 12.9083 8.14171C12.9138 8.26949 12.9166 8.38893 12.9166 8.50004C12.9166 8.61115 12.9138 8.72782 12.9083 8.85004C12.9027 8.97226 12.8888 9.08893 12.8666 9.20004L14.6666 10.5L13.1166 13.2334L11.1499 12.3334C10.9721 12.4778 10.7694 12.6195 10.5416 12.7584C10.3138 12.8973 10.0888 13 9.86659 13.0667L9.53325 15.1667H6.46659ZM7.99992 10.6667C8.59992 10.6667 9.11103 10.4556 9.53325 10.0334C9.95547 9.61115 10.1666 9.10004 10.1666 8.50004C10.1666 7.90004 9.95547 7.38893 9.53325 6.96671C9.11103 6.54449 8.59992 6.33337 7.99992 6.33337C7.39992 6.33337 6.88881 6.54449 6.46659 6.96671C6.04436 7.38893 5.83325 7.90004 5.83325 8.50004C5.83325 9.10004 6.04436 9.61115 6.46659 10.0334C6.88881 10.4556 7.39992 10.6667 7.99992 10.6667Z" fill="#1E1E1E" fill-opacity="0.6"/>
</svg>
