<svg width="605" height="499" viewBox="0 0 605 499" fill="none" xmlns="http://www.w3.org/2000/svg">
<rect x="0.235474" width="604.765" height="498.447" rx="20" fill="#F2F1FA"/>
<path d="M485.242 429.615C473.523 429.615 461.804 429.615 450.085 429.615C449.512 429.615 448.932 429.615 448.357 429.556C445.424 429.282 444.244 427.305 445.495 424.633C446.581 422.326 447.765 420.078 448.915 417.796C454.344 407.049 459.772 396.303 465.201 385.56C465.369 385.232 465.544 384.903 465.739 384.59C467.106 382.399 469.326 382.09 471.076 383.981C472.31 385.303 473.353 386.789 474.454 388.222C480.047 395.531 485.64 402.843 491.233 410.159C493.676 413.342 496.753 413.514 499.623 410.652C501.047 409.231 502.438 407.772 503.879 406.364C506.478 403.822 509.426 403.975 511.548 406.938C515.807 412.885 519.96 418.911 524.133 424.917C524.459 425.388 524.709 425.908 524.873 426.457C525.278 427.836 524.705 428.946 523.306 429.314C522.429 429.524 521.528 429.621 520.626 429.603C508.838 429.622 497.043 429.627 485.242 429.615Z" fill="#D4D2E3"/>
<path d="M511.524 370.728C511.521 373.021 510.837 375.263 509.558 377.167C508.28 379.072 506.465 380.554 504.343 381.426C502.221 382.298 499.889 382.52 497.64 382.064C495.392 381.609 493.33 380.496 491.715 378.867C490.1 377.238 489.005 375.166 488.57 372.914C488.134 370.662 488.376 368.331 489.267 366.217C490.157 364.103 491.655 362.301 493.571 361.039C495.486 359.777 497.734 359.113 500.027 359.13C503.082 359.169 505.999 360.407 508.149 362.576C510.3 364.745 511.512 367.673 511.524 370.728Z" fill="#D4D2E3"/>
<path d="M54.0435 90.8984V80.8024H50.6995V79.6984H58.7315V80.8024H55.3875V90.8984H54.0435ZM60.003 90.8984L64.131 79.6984H65.555L69.667 90.8984H68.243L67.219 88.0184H62.451L61.411 90.8984H60.003ZM62.851 86.9304H66.819L64.835 81.3944L62.851 86.9304ZM77.1073 91.0904C76.062 91.0904 75.1447 90.8504 74.3553 90.3704C73.566 89.8798 72.9527 89.2024 72.5153 88.3384C72.078 87.4638 71.8593 86.4558 71.8593 85.3144C71.8593 84.1731 72.078 83.1651 72.5153 82.2904C72.9633 81.4158 73.5927 80.7331 74.4033 80.2424C75.2247 79.7518 76.19 79.5064 77.2993 79.5064C78.558 79.5064 79.6033 79.8104 80.4353 80.4184C81.278 81.0264 81.822 81.8638 82.0674 82.9304H80.5153C80.366 82.2584 80.0087 81.7251 79.4433 81.3304C78.8887 80.9358 78.174 80.7384 77.2993 80.7384C76.478 80.7384 75.7633 80.9251 75.1553 81.2984C74.5473 81.6611 74.0727 82.1838 73.7313 82.8664C73.4007 83.5491 73.2353 84.3651 73.2353 85.3144C73.2353 86.2638 73.4007 87.0798 73.7313 87.7624C74.062 88.4451 74.5207 88.9731 75.1073 89.3464C75.694 89.7091 76.3767 89.8904 77.1553 89.8904C78.35 89.8904 79.2513 89.5438 79.8594 88.8504C80.4674 88.1464 80.814 87.1864 80.8994 85.9704H77.6673V84.9144H82.2753V90.8984H81.0434L80.9313 89.0584C80.526 89.7091 80.03 90.2104 79.4433 90.5624C78.8567 90.9144 78.078 91.0904 77.1073 91.0904ZM86.0007 90.8984V79.6984H87.3447V89.8264H92.5607V90.8984H86.0007ZM96.007 90.8984V79.6984H97.351V90.8984H96.007ZM101.326 90.8984V79.6984H102.67L108.638 88.6744V79.6984H109.982V90.8984H108.638L102.67 81.9224V90.8984H101.326ZM113.957 90.8984V79.6984H120.885V80.8024H115.301V84.7064H120.405V85.7944H115.301V89.7944H120.885V90.8984H113.957Z" fill="#9795B5"/>
<path d="M51.7315 122.373V106.973H56.9895C58.7935 106.973 60.2748 107.296 61.4335 107.941C62.6068 108.572 63.4721 109.466 64.0295 110.625C64.6015 111.769 64.8875 113.118 64.8875 114.673C64.8875 116.228 64.6015 117.584 64.0295 118.743C63.4721 119.887 62.6068 120.782 61.4335 121.427C60.2748 122.058 58.7935 122.373 56.9895 122.373H51.7315ZM54.5475 119.953H56.8575C58.1481 119.953 59.1675 119.748 59.9155 119.337C60.6635 118.912 61.1988 118.31 61.5215 117.533C61.8441 116.741 62.0055 115.788 62.0055 114.673C62.0055 113.573 61.8441 112.627 61.5215 111.835C61.1988 111.043 60.6635 110.434 59.9155 110.009C59.1675 109.584 58.1481 109.371 56.8575 109.371H54.5475V119.953ZM68.8241 109.767C68.3108 109.767 67.8854 109.613 67.5481 109.305C67.2254 108.997 67.0641 108.608 67.0641 108.139C67.0641 107.67 67.2254 107.288 67.5481 106.995C67.8854 106.687 68.3108 106.533 68.8241 106.533C69.3374 106.533 69.7554 106.687 70.0781 106.995C70.4154 107.288 70.5841 107.67 70.5841 108.139C70.5841 108.608 70.4154 108.997 70.0781 109.305C69.7554 109.613 69.3374 109.767 68.8241 109.767ZM67.4161 122.373V111.461H70.2321V122.373H67.4161ZM77.6813 122.637C76.7133 122.637 75.8627 122.483 75.1293 122.175C74.396 121.852 73.8093 121.412 73.3693 120.855C72.9293 120.298 72.6653 119.652 72.5773 118.919H75.4153C75.5033 119.344 75.738 119.711 76.1193 120.019C76.5153 120.312 77.0213 120.459 77.6373 120.459C78.2533 120.459 78.7007 120.334 78.9793 120.085C79.2727 119.836 79.4193 119.55 79.4193 119.227C79.4193 118.758 79.214 118.442 78.8033 118.281C78.3927 118.105 77.8207 117.936 77.0873 117.775C76.618 117.672 76.1413 117.548 75.6573 117.401C75.1733 117.254 74.726 117.071 74.3153 116.851C73.9193 116.616 73.5967 116.323 73.3473 115.971C73.098 115.604 72.9733 115.157 72.9733 114.629C72.9733 113.661 73.3547 112.847 74.1173 112.187C74.8947 111.527 75.98 111.197 77.3733 111.197C78.664 111.197 79.6907 111.498 80.4533 112.099C81.2307 112.7 81.6927 113.529 81.8393 114.585H79.1773C79.016 113.778 78.4073 113.375 77.3513 113.375C76.8233 113.375 76.4127 113.478 76.1193 113.683C75.8407 113.888 75.7013 114.145 75.7013 114.453C75.7013 114.776 75.914 115.032 76.3393 115.223C76.7647 115.414 77.3293 115.59 78.0333 115.751C78.796 115.927 79.4927 116.125 80.1233 116.345C80.7687 116.55 81.282 116.866 81.6633 117.291C82.0447 117.702 82.2353 118.296 82.2353 119.073C82.25 119.748 82.074 120.356 81.7073 120.899C81.3407 121.442 80.8127 121.867 80.1233 122.175C79.434 122.483 78.62 122.637 77.6813 122.637ZM90.0759 122.637C88.9613 122.637 87.9786 122.395 87.1279 121.911C86.2773 121.427 85.6026 120.752 85.1039 119.887C84.6199 119.022 84.3779 118.032 84.3779 116.917C84.3779 115.802 84.6199 114.812 85.1039 113.947C85.6026 113.082 86.2773 112.407 87.1279 111.923C87.9786 111.439 88.9613 111.197 90.0759 111.197C91.4693 111.197 92.6426 111.564 93.5959 112.297C94.5493 113.016 95.1579 114.013 95.4219 115.289H92.4519C92.3053 114.761 92.0119 114.35 91.5719 114.057C91.1466 113.749 90.6406 113.595 90.0539 113.595C89.2766 113.595 88.6166 113.888 88.0739 114.475C87.5313 115.062 87.2599 115.876 87.2599 116.917C87.2599 117.958 87.5313 118.772 88.0739 119.359C88.6166 119.946 89.2766 120.239 90.0539 120.239C90.6406 120.239 91.1466 120.092 91.5719 119.799C92.0119 119.506 92.3053 119.088 92.4519 118.545H95.4219C95.1579 119.777 94.5493 120.767 93.5959 121.515C92.6426 122.263 91.4693 122.637 90.0759 122.637ZM103.157 122.637C102.101 122.637 101.148 122.395 100.297 121.911C99.4613 121.427 98.794 120.76 98.2953 119.909C97.8113 119.044 97.5693 118.046 97.5693 116.917C97.5693 115.788 97.8187 114.798 98.3173 113.947C98.816 113.082 99.4833 112.407 100.319 111.923C101.17 111.439 102.123 111.197 103.179 111.197C104.221 111.197 105.159 111.439 105.995 111.923C106.846 112.407 107.513 113.082 107.997 113.947C108.496 114.798 108.745 115.788 108.745 116.917C108.745 118.046 108.496 119.044 107.997 119.909C107.513 120.76 106.846 121.427 105.995 121.911C105.145 122.395 104.199 122.637 103.157 122.637ZM103.157 120.195C103.891 120.195 104.529 119.924 105.071 119.381C105.614 118.824 105.885 118.002 105.885 116.917C105.885 115.832 105.614 115.018 105.071 114.475C104.529 113.918 103.898 113.639 103.179 113.639C102.431 113.639 101.786 113.918 101.243 114.475C100.715 115.018 100.451 115.832 100.451 116.917C100.451 118.002 100.715 118.824 101.243 119.381C101.786 119.924 102.424 120.195 103.157 120.195ZM113.674 122.373L109.67 111.461H112.618L115.39 119.711L118.162 111.461H121.11L117.084 122.373H113.674ZM127.651 122.637C126.551 122.637 125.576 122.402 124.725 121.933C123.874 121.464 123.207 120.804 122.723 119.953C122.239 119.102 121.997 118.12 121.997 117.005C121.997 115.876 122.232 114.871 122.701 113.991C123.185 113.111 123.845 112.429 124.681 111.945C125.532 111.446 126.529 111.197 127.673 111.197C128.744 111.197 129.69 111.432 130.511 111.901C131.332 112.37 131.97 113.016 132.425 113.837C132.894 114.644 133.129 115.546 133.129 116.543C133.129 116.704 133.122 116.873 133.107 117.049C133.107 117.225 133.1 117.408 133.085 117.599H124.791C124.85 118.45 125.143 119.117 125.671 119.601C126.214 120.085 126.866 120.327 127.629 120.327C128.201 120.327 128.678 120.202 129.059 119.953C129.455 119.689 129.748 119.352 129.939 118.941H132.799C132.594 119.63 132.249 120.261 131.765 120.833C131.296 121.39 130.709 121.83 130.005 122.153C129.316 122.476 128.531 122.637 127.651 122.637ZM127.673 113.485C126.984 113.485 126.375 113.683 125.847 114.079C125.319 114.46 124.982 115.047 124.835 115.839H130.269C130.225 115.12 129.961 114.548 129.477 114.123C128.993 113.698 128.392 113.485 127.673 113.485ZM135.498 122.373V111.461H138.006L138.27 113.507C138.666 112.803 139.201 112.246 139.876 111.835C140.565 111.41 141.372 111.197 142.296 111.197V114.167H141.504C140.888 114.167 140.338 114.262 139.854 114.453C139.37 114.644 138.988 114.974 138.71 115.443C138.446 115.912 138.314 116.565 138.314 117.401V122.373H135.498ZM156.744 122.637C155.204 122.637 153.855 122.3 152.696 121.625C151.552 120.95 150.65 120.019 149.99 118.831C149.345 117.628 149.022 116.242 149.022 114.673C149.022 113.104 149.345 111.725 149.99 110.537C150.65 109.334 151.552 108.396 152.696 107.721C153.855 107.046 155.204 106.709 156.744 106.709C158.27 106.709 159.612 107.046 160.77 107.721C161.929 108.396 162.831 109.334 163.476 110.537C164.122 111.725 164.444 113.104 164.444 114.673C164.444 116.242 164.122 117.628 163.476 118.831C162.831 120.019 161.929 120.95 160.77 121.625C159.612 122.3 158.27 122.637 156.744 122.637ZM156.744 120.107C158.211 120.107 159.377 119.623 160.242 118.655C161.122 117.687 161.562 116.36 161.562 114.673C161.562 112.986 161.122 111.659 160.242 110.691C159.377 109.723 158.211 109.239 156.744 109.239C155.278 109.239 154.104 109.723 153.224 110.691C152.344 111.659 151.904 112.986 151.904 114.673C151.904 116.36 152.344 117.687 153.224 118.655C154.104 119.623 155.278 120.107 156.744 120.107ZM170.957 122.637C169.593 122.637 168.537 122.212 167.789 121.361C167.055 120.51 166.689 119.264 166.689 117.621V111.461H169.483V117.357C169.483 118.296 169.673 119.014 170.055 119.513C170.436 120.012 171.037 120.261 171.859 120.261C172.636 120.261 173.274 119.982 173.773 119.425C174.286 118.868 174.543 118.09 174.543 117.093V111.461H177.359V122.373H174.873L174.653 120.525C174.315 121.17 173.824 121.684 173.179 122.065C172.548 122.446 171.807 122.637 170.957 122.637ZM180.249 122.373V111.461H182.757L183.021 113.507C183.417 112.803 183.953 112.246 184.627 111.835C185.317 111.41 186.123 111.197 187.047 111.197V114.167H186.255C185.639 114.167 185.089 114.262 184.605 114.453C184.121 114.644 183.74 114.974 183.461 115.443C183.197 115.912 183.065 116.565 183.065 117.401V122.373H180.249ZM50.7415 150.373L56.3735 134.973H59.5415L65.1735 150.373H62.1815L60.9495 146.809H54.9435L53.6895 150.373H50.7415ZM55.7135 144.609H60.1795L57.9355 138.207L55.7135 144.609ZM71.9216 150.637C70.807 150.637 69.8243 150.395 68.9736 149.911C68.123 149.427 67.4483 148.752 66.9496 147.887C66.4656 147.022 66.2236 146.032 66.2236 144.917C66.2236 143.802 66.4656 142.812 66.9496 141.947C67.4483 141.082 68.123 140.407 68.9736 139.923C69.8243 139.439 70.807 139.197 71.9216 139.197C73.315 139.197 74.4883 139.564 75.4416 140.297C76.395 141.016 77.0036 142.013 77.2676 143.289H74.2976C74.151 142.761 73.8576 142.35 73.4176 142.057C72.9923 141.749 72.4863 141.595 71.8996 141.595C71.1223 141.595 70.4623 141.888 69.9196 142.475C69.377 143.062 69.1056 143.876 69.1056 144.917C69.1056 145.958 69.377 146.772 69.9196 147.359C70.4623 147.946 71.1223 148.239 71.8996 148.239C72.4863 148.239 72.9923 148.092 73.4176 147.799C73.8576 147.506 74.151 147.088 74.2976 146.545H77.2676C77.0036 147.777 76.395 148.767 75.4416 149.515C74.4883 150.263 73.315 150.637 71.9216 150.637ZM85.113 150.637C83.9984 150.637 83.0157 150.395 82.165 149.911C81.3144 149.427 80.6397 148.752 80.141 147.887C79.657 147.022 79.415 146.032 79.415 144.917C79.415 143.802 79.657 142.812 80.141 141.947C80.6397 141.082 81.3144 140.407 82.165 139.923C83.0157 139.439 83.9984 139.197 85.113 139.197C86.5064 139.197 87.6797 139.564 88.633 140.297C89.5864 141.016 90.195 142.013 90.459 143.289H87.489C87.3424 142.761 87.049 142.35 86.609 142.057C86.1837 141.749 85.6777 141.595 85.091 141.595C84.3137 141.595 83.6537 141.888 83.111 142.475C82.5684 143.062 82.297 143.876 82.297 144.917C82.297 145.958 82.5684 146.772 83.111 147.359C83.6537 147.946 84.3137 148.239 85.091 148.239C85.6777 148.239 86.1837 148.092 86.609 147.799C87.049 147.506 87.3424 147.088 87.489 146.545H90.459C90.195 147.777 89.5864 148.767 88.633 149.515C87.6797 150.263 86.5064 150.637 85.113 150.637ZM98.2604 150.637C97.1604 150.637 96.1851 150.402 95.3344 149.933C94.4838 149.464 93.8164 148.804 93.3324 147.953C92.8484 147.102 92.6064 146.12 92.6064 145.005C92.6064 143.876 92.8411 142.871 93.3104 141.991C93.7944 141.111 94.4544 140.429 95.2904 139.945C96.1411 139.446 97.1384 139.197 98.2824 139.197C99.3531 139.197 100.299 139.432 101.12 139.901C101.942 140.37 102.58 141.016 103.034 141.837C103.504 142.644 103.738 143.546 103.738 144.543C103.738 144.704 103.731 144.873 103.716 145.049C103.716 145.225 103.709 145.408 103.694 145.599H95.4004C95.4591 146.45 95.7524 147.117 96.2804 147.601C96.8231 148.085 97.4758 148.327 98.2384 148.327C98.8104 148.327 99.2871 148.202 99.6684 147.953C100.064 147.689 100.358 147.352 100.548 146.941H103.408C103.203 147.63 102.858 148.261 102.374 148.833C101.905 149.39 101.318 149.83 100.614 150.153C99.9251 150.476 99.1404 150.637 98.2604 150.637ZM98.2824 141.485C97.5931 141.485 96.9844 141.683 96.4564 142.079C95.9284 142.46 95.5911 143.047 95.4444 143.839H100.878C100.834 143.12 100.57 142.548 100.086 142.123C99.6024 141.698 99.0011 141.485 98.2824 141.485ZM110.617 150.637C109.649 150.637 108.798 150.483 108.065 150.175C107.332 149.852 106.745 149.412 106.305 148.855C105.865 148.298 105.601 147.652 105.513 146.919H108.351C108.439 147.344 108.674 147.711 109.055 148.019C109.451 148.312 109.957 148.459 110.573 148.459C111.189 148.459 111.636 148.334 111.915 148.085C112.208 147.836 112.355 147.55 112.355 147.227C112.355 146.758 112.15 146.442 111.739 146.281C111.328 146.105 110.756 145.936 110.023 145.775C109.554 145.672 109.077 145.548 108.593 145.401C108.109 145.254 107.662 145.071 107.251 144.851C106.855 144.616 106.532 144.323 106.283 143.971C106.034 143.604 105.909 143.157 105.909 142.629C105.909 141.661 106.29 140.847 107.053 140.187C107.83 139.527 108.916 139.197 110.309 139.197C111.6 139.197 112.626 139.498 113.389 140.099C114.166 140.7 114.628 141.529 114.775 142.585H112.113C111.952 141.778 111.343 141.375 110.287 141.375C109.759 141.375 109.348 141.478 109.055 141.683C108.776 141.888 108.637 142.145 108.637 142.453C108.637 142.776 108.85 143.032 109.275 143.223C109.7 143.414 110.265 143.59 110.969 143.751C111.732 143.927 112.428 144.125 113.059 144.345C113.704 144.55 114.218 144.866 114.599 145.291C114.98 145.702 115.171 146.296 115.171 147.073C115.186 147.748 115.01 148.356 114.643 148.899C114.276 149.442 113.748 149.867 113.059 150.175C112.37 150.483 111.556 150.637 110.617 150.637ZM122.901 150.637C121.845 150.637 120.892 150.395 120.041 149.911C119.205 149.427 118.538 148.76 118.039 147.909C117.555 147.044 117.313 146.046 117.313 144.917C117.313 143.788 117.563 142.798 118.061 141.947C118.56 141.082 119.227 140.407 120.063 139.923C120.914 139.439 121.867 139.197 122.923 139.197C123.965 139.197 124.903 139.439 125.739 139.923C126.59 140.407 127.257 141.082 127.741 141.947C128.24 142.798 128.489 143.788 128.489 144.917C128.489 146.046 128.24 147.044 127.741 147.909C127.257 148.76 126.59 149.427 125.739 149.911C124.889 150.395 123.943 150.637 122.901 150.637ZM122.901 148.195C123.635 148.195 124.273 147.924 124.815 147.381C125.358 146.824 125.629 146.002 125.629 144.917C125.629 143.832 125.358 143.018 124.815 142.475C124.273 141.918 123.642 141.639 122.923 141.639C122.175 141.639 121.53 141.918 120.987 142.475C120.459 143.018 120.195 143.832 120.195 144.917C120.195 146.002 120.459 146.824 120.987 147.381C121.53 147.924 122.168 148.195 122.901 148.195ZM131.007 150.373V139.461H133.515L133.779 141.507C134.175 140.803 134.711 140.246 135.385 139.835C136.075 139.41 136.881 139.197 137.805 139.197V142.167H137.013C136.397 142.167 135.847 142.262 135.363 142.453C134.879 142.644 134.498 142.974 134.219 143.443C133.955 143.912 133.823 144.565 133.823 145.401V150.373H131.007ZM141.248 137.767C140.735 137.767 140.309 137.613 139.972 137.305C139.649 136.997 139.488 136.608 139.488 136.139C139.488 135.67 139.649 135.288 139.972 134.995C140.309 134.687 140.735 134.533 141.248 134.533C141.761 134.533 142.179 134.687 142.502 134.995C142.839 135.288 143.008 135.67 143.008 136.139C143.008 136.608 142.839 136.997 142.502 137.305C142.179 137.613 141.761 137.767 141.248 137.767ZM139.84 150.373V139.461H142.656V150.373H139.84ZM150.897 150.637C149.797 150.637 148.822 150.402 147.971 149.933C147.12 149.464 146.453 148.804 145.969 147.953C145.485 147.102 145.243 146.12 145.243 145.005C145.243 143.876 145.478 142.871 145.947 141.991C146.431 141.111 147.091 140.429 147.927 139.945C148.778 139.446 149.775 139.197 150.919 139.197C151.99 139.197 152.936 139.432 153.757 139.901C154.578 140.37 155.216 141.016 155.671 141.837C156.14 142.644 156.375 143.546 156.375 144.543C156.375 144.704 156.368 144.873 156.353 145.049C156.353 145.225 156.346 145.408 156.331 145.599H148.037C148.096 146.45 148.389 147.117 148.917 147.601C149.46 148.085 150.112 148.327 150.875 148.327C151.447 148.327 151.924 148.202 152.305 147.953C152.701 147.689 152.994 147.352 153.185 146.941H156.045C155.84 147.63 155.495 148.261 155.011 148.833C154.542 149.39 153.955 149.83 153.251 150.153C152.562 150.476 151.777 150.637 150.897 150.637ZM150.919 141.485C150.23 141.485 149.621 141.683 149.093 142.079C148.565 142.46 148.228 143.047 148.081 143.839H153.515C153.471 143.12 153.207 142.548 152.723 142.123C152.239 141.698 151.638 141.485 150.919 141.485ZM163.254 150.637C162.286 150.637 161.435 150.483 160.702 150.175C159.968 149.852 159.382 149.412 158.942 148.855C158.502 148.298 158.238 147.652 158.15 146.919H160.988C161.076 147.344 161.31 147.711 161.692 148.019C162.088 148.312 162.594 148.459 163.21 148.459C163.826 148.459 164.273 148.334 164.552 148.085C164.845 147.836 164.992 147.55 164.992 147.227C164.992 146.758 164.786 146.442 164.376 146.281C163.965 146.105 163.393 145.936 162.66 145.775C162.19 145.672 161.714 145.548 161.23 145.401C160.746 145.254 160.298 145.071 159.888 144.851C159.492 144.616 159.169 144.323 158.92 143.971C158.67 143.604 158.546 143.157 158.546 142.629C158.546 141.661 158.927 140.847 159.69 140.187C160.467 139.527 161.552 139.197 162.946 139.197C164.236 139.197 165.263 139.498 166.026 140.099C166.803 140.7 167.265 141.529 167.412 142.585H164.75C164.588 141.778 163.98 141.375 162.924 141.375C162.396 141.375 161.985 141.478 161.692 141.683C161.413 141.888 161.274 142.145 161.274 142.453C161.274 142.776 161.486 143.032 161.912 143.223C162.337 143.414 162.902 143.59 163.606 143.751C164.368 143.927 165.065 144.125 165.696 144.345C166.341 144.55 166.854 144.866 167.236 145.291C167.617 145.702 167.808 146.296 167.808 147.073C167.822 147.748 167.646 148.356 167.28 148.899C166.913 149.442 166.385 149.867 165.696 150.175C165.006 150.483 164.192 150.637 163.254 150.637ZM182.584 150.637C181.03 150.637 179.695 150.307 178.58 149.647C177.466 148.972 176.608 148.041 176.006 146.853C175.405 145.65 175.104 144.264 175.104 142.695C175.104 141.126 175.405 139.74 176.006 138.537C176.608 137.334 177.466 136.396 178.58 135.721C179.695 135.046 181.03 134.709 182.584 134.709C184.432 134.709 185.943 135.171 187.116 136.095C188.304 137.004 189.045 138.288 189.338 139.945H186.236C186.046 139.109 185.635 138.456 185.004 137.987C184.388 137.503 183.567 137.261 182.54 137.261C181.118 137.261 180.003 137.745 179.196 138.713C178.39 139.681 177.986 141.008 177.986 142.695C177.986 144.382 178.39 145.709 179.196 146.677C180.003 147.63 181.118 148.107 182.54 148.107C183.567 148.107 184.388 147.887 185.004 147.447C185.635 146.992 186.046 146.369 186.236 145.577H189.338C189.045 147.161 188.304 148.4 187.116 149.295C185.943 150.19 184.432 150.637 182.584 150.637ZM197.001 150.637C195.945 150.637 194.992 150.395 194.141 149.911C193.305 149.427 192.638 148.76 192.139 147.909C191.655 147.044 191.413 146.046 191.413 144.917C191.413 143.788 191.662 142.798 192.161 141.947C192.66 141.082 193.327 140.407 194.163 139.923C195.014 139.439 195.967 139.197 197.023 139.197C198.064 139.197 199.003 139.439 199.839 139.923C200.69 140.407 201.357 141.082 201.841 141.947C202.34 142.798 202.589 143.788 202.589 144.917C202.589 146.046 202.34 147.044 201.841 147.909C201.357 148.76 200.69 149.427 199.839 149.911C198.988 150.395 198.042 150.637 197.001 150.637ZM197.001 148.195C197.734 148.195 198.372 147.924 198.915 147.381C199.458 146.824 199.729 146.002 199.729 144.917C199.729 143.832 199.458 143.018 198.915 142.475C198.372 141.918 197.742 141.639 197.023 141.639C196.275 141.639 195.63 141.918 195.087 142.475C194.559 143.018 194.295 143.832 194.295 144.917C194.295 146.002 194.559 146.824 195.087 147.381C195.63 147.924 196.268 148.195 197.001 148.195ZM205.107 150.373V134.533H207.923V150.373H205.107ZM210.8 150.373V134.533H213.616V150.373H210.8ZM221.796 150.637C220.696 150.637 219.72 150.402 218.87 149.933C218.019 149.464 217.352 148.804 216.868 147.953C216.384 147.102 216.142 146.12 216.142 145.005C216.142 143.876 216.376 142.871 216.846 141.991C217.33 141.111 217.99 140.429 218.826 139.945C219.676 139.446 220.674 139.197 221.818 139.197C222.888 139.197 223.834 139.432 224.656 139.901C225.477 140.37 226.115 141.016 226.57 141.837C227.039 142.644 227.274 143.546 227.274 144.543C227.274 144.704 227.266 144.873 227.252 145.049C227.252 145.225 227.244 145.408 227.23 145.599H218.936C218.994 146.45 219.288 147.117 219.816 147.601C220.358 148.085 221.011 148.327 221.774 148.327C222.346 148.327 222.822 148.202 223.204 147.953C223.6 147.689 223.893 147.352 224.084 146.941H226.944C226.738 147.63 226.394 148.261 225.91 148.833C225.44 149.39 224.854 149.83 224.15 150.153C223.46 150.476 222.676 150.637 221.796 150.637ZM221.818 141.485C221.128 141.485 220.52 141.683 219.992 142.079C219.464 142.46 219.126 143.047 218.98 143.839H224.414C224.37 143.12 224.106 142.548 223.622 142.123C223.138 141.698 222.536 141.485 221.818 141.485ZM234.988 150.637C233.873 150.637 232.891 150.395 232.04 149.911C231.189 149.427 230.515 148.752 230.016 147.887C229.532 147.022 229.29 146.032 229.29 144.917C229.29 143.802 229.532 142.812 230.016 141.947C230.515 141.082 231.189 140.407 232.04 139.923C232.891 139.439 233.873 139.197 234.988 139.197C236.381 139.197 237.555 139.564 238.508 140.297C239.461 141.016 240.07 142.013 240.334 143.289H237.364C237.217 142.761 236.924 142.35 236.484 142.057C236.059 141.749 235.553 141.595 234.966 141.595C234.189 141.595 233.529 141.888 232.986 142.475C232.443 143.062 232.172 143.876 232.172 144.917C232.172 145.958 232.443 146.772 232.986 147.359C233.529 147.946 234.189 148.239 234.966 148.239C235.553 148.239 236.059 148.092 236.484 147.799C236.924 147.506 237.217 147.088 237.364 146.545H240.334C240.07 147.777 239.461 148.767 238.508 149.515C237.555 150.263 236.381 150.637 234.988 150.637ZM247.545 150.373C246.401 150.373 245.484 150.094 244.795 149.537C244.106 148.98 243.761 147.99 243.761 146.567V141.815H241.891V139.461H243.761L244.091 136.535H246.577V139.461H249.525V141.815H246.577V146.589C246.577 147.117 246.687 147.484 246.907 147.689C247.142 147.88 247.538 147.975 248.095 147.975H249.459V150.373H247.545ZM253.461 137.767C252.947 137.767 252.522 137.613 252.185 137.305C251.862 136.997 251.701 136.608 251.701 136.139C251.701 135.67 251.862 135.288 252.185 134.995C252.522 134.687 252.947 134.533 253.461 134.533C253.974 134.533 254.392 134.687 254.715 134.995C255.052 135.288 255.221 135.67 255.221 136.139C255.221 136.608 255.052 136.997 254.715 137.305C254.392 137.613 253.974 137.767 253.461 137.767ZM252.053 150.373V139.461H254.869V150.373H252.053ZM263.044 150.637C261.988 150.637 261.035 150.395 260.184 149.911C259.348 149.427 258.681 148.76 258.182 147.909C257.698 147.044 257.456 146.046 257.456 144.917C257.456 143.788 257.705 142.798 258.204 141.947C258.703 141.082 259.37 140.407 260.206 139.923C261.057 139.439 262.01 139.197 263.066 139.197C264.107 139.197 265.046 139.439 265.882 139.923C266.733 140.407 267.4 141.082 267.884 141.947C268.383 142.798 268.632 143.788 268.632 144.917C268.632 146.046 268.383 147.044 267.884 147.909C267.4 148.76 266.733 149.427 265.882 149.911C265.031 150.395 264.085 150.637 263.044 150.637ZM263.044 148.195C263.777 148.195 264.415 147.924 264.958 147.381C265.501 146.824 265.772 146.002 265.772 144.917C265.772 143.832 265.501 143.018 264.958 142.475C264.415 141.918 263.785 141.639 263.066 141.639C262.318 141.639 261.673 141.918 261.13 142.475C260.602 143.018 260.338 143.832 260.338 144.917C260.338 146.002 260.602 146.824 261.13 147.381C261.673 147.924 262.311 148.195 263.044 148.195ZM271.15 150.373V139.461H273.636L273.856 141.309C274.193 140.664 274.677 140.15 275.308 139.769C275.953 139.388 276.709 139.197 277.574 139.197C278.923 139.197 279.972 139.622 280.72 140.473C281.468 141.324 281.842 142.57 281.842 144.213V150.373H279.026V144.477C279.026 143.538 278.835 142.82 278.454 142.321C278.073 141.822 277.479 141.573 276.672 141.573C275.88 141.573 275.227 141.852 274.714 142.409C274.215 142.966 273.966 143.744 273.966 144.741V150.373H271.15Z" fill="#5D5A88"/>
</svg>
