<svg width="584" height="234" viewBox="0 0 584 234" fill="none" xmlns="http://www.w3.org/2000/svg">
<rect y="0.176758" width="583.328" height="233.27" rx="20" fill="#F2F1FA"/>
<path d="M455.762 152.052C444.043 152.052 432.324 152.052 420.605 152.052C420.032 152.052 419.452 152.052 418.877 151.992C415.944 151.718 414.764 149.742 416.015 147.07C417.101 144.762 418.285 142.515 419.435 140.232C424.864 129.485 430.292 118.74 435.721 107.996C435.889 107.668 436.064 107.34 436.259 107.027C437.626 104.835 439.847 104.527 441.596 106.417C442.83 107.74 443.874 109.225 444.974 110.659C450.567 117.968 456.16 125.28 461.753 132.595C464.196 135.778 467.273 135.951 470.143 133.089C471.567 131.667 472.958 130.209 474.399 128.8C476.998 126.258 479.946 126.411 482.068 129.375C486.327 135.322 490.48 141.347 494.653 147.353C494.979 147.825 495.229 148.344 495.393 148.893C495.798 150.272 495.225 151.383 493.826 151.75C492.949 151.961 492.048 152.058 491.146 152.039C479.358 152.059 467.563 152.063 455.762 152.052Z" fill="#D4D2E3"/>
<path d="M482.044 93.1641C482.041 95.4579 481.357 97.6992 480.078 99.6039C478.8 101.508 476.985 102.991 474.863 103.862C472.741 104.734 470.409 104.956 468.16 104.501C465.912 104.045 463.85 102.932 462.235 101.303C460.62 99.674 459.525 97.6021 459.09 95.3501C458.654 93.098 458.896 90.7673 459.787 88.6533C460.677 86.5393 462.175 84.7372 464.091 83.4756C466.006 82.214 468.254 81.5496 470.547 81.5667C473.602 81.6055 476.519 82.843 478.669 85.0125C480.82 87.1819 482.032 90.1095 482.044 93.1641Z" fill="#D4D2E3"/>
<path d="M53.808 91.0752V80.9792H50.464V79.8752H58.496V80.9792H55.152V91.0752H53.808ZM59.7675 91.0752L63.8955 79.8752H65.3195L69.4315 91.0752H68.0075L66.9835 88.1952H62.2155L61.1755 91.0752H59.7675ZM62.6155 87.1072H66.5835L64.5995 81.5712L62.6155 87.1072ZM76.8719 91.2672C75.8265 91.2672 74.9092 91.0272 74.1199 90.5472C73.3305 90.0565 72.7172 89.3792 72.2799 88.5152C71.8425 87.6405 71.6239 86.6325 71.6239 85.4912C71.6239 84.3499 71.8425 83.3419 72.2799 82.4672C72.7279 81.5925 73.3572 80.9099 74.1679 80.4192C74.9892 79.9285 75.9545 79.6832 77.0639 79.6832C78.3225 79.6832 79.3679 79.9872 80.1999 80.5952C81.0425 81.2032 81.5865 82.0405 81.8319 83.1072H80.2799C80.1305 82.4352 79.7732 81.9019 79.2079 81.5072C78.6532 81.1125 77.9385 80.9152 77.0639 80.9152C76.2425 80.9152 75.5279 81.1019 74.9199 81.4752C74.3119 81.8379 73.8372 82.3605 73.4959 83.0432C73.1652 83.7259 72.9999 84.5419 72.9999 85.4912C72.9999 86.4405 73.1652 87.2565 73.4959 87.9392C73.8265 88.6219 74.2852 89.1499 74.8719 89.5232C75.4585 89.8859 76.1412 90.0672 76.9199 90.0672C78.1145 90.0672 79.0159 89.7205 79.6239 89.0272C80.2319 88.3232 80.5785 87.3632 80.6639 86.1472H77.4319V85.0912H82.0399V91.0752H80.8079L80.6959 89.2352C80.2905 89.8859 79.7945 90.3872 79.2079 90.7392C78.6212 91.0912 77.8425 91.2672 76.8719 91.2672ZM85.7652 91.0752V79.8752H87.1092V90.0032H92.3252V91.0752H85.7652ZM95.7715 91.0752V79.8752H97.1155V91.0752H95.7715ZM101.09 91.0752V79.8752H102.434L108.402 88.8512V79.8752H109.746V91.0752H108.402L102.434 82.0992V91.0752H101.09ZM113.721 91.0752V79.8752H120.649V80.9792H115.065V84.8832H120.169V85.9712H115.065V89.9712H120.649V91.0752H113.721Z" fill="#9795B5"/>
<path d="M51.496 122.55V107.15H56.754C58.558 107.15 60.0393 107.472 61.198 108.118C62.3713 108.748 63.2367 109.643 63.794 110.802C64.366 111.946 64.652 113.295 64.652 114.85C64.652 116.404 64.366 117.761 63.794 118.92C63.2367 120.064 62.3713 120.958 61.198 121.604C60.0393 122.234 58.558 122.55 56.754 122.55H51.496ZM54.312 120.13H56.622C57.9127 120.13 58.932 119.924 59.68 119.514C60.428 119.088 60.9633 118.487 61.286 117.71C61.6087 116.918 61.77 115.964 61.77 114.85C61.77 113.75 61.6087 112.804 61.286 112.012C60.9633 111.22 60.428 110.611 59.68 110.186C58.932 109.76 57.9127 109.548 56.622 109.548H54.312V120.13ZM68.5886 109.944C68.0753 109.944 67.65 109.79 67.3126 109.482C66.99 109.174 66.8286 108.785 66.8286 108.316C66.8286 107.846 66.99 107.465 67.3126 107.172C67.65 106.864 68.0753 106.71 68.5886 106.71C69.102 106.71 69.52 106.864 69.8426 107.172C70.18 107.465 70.3486 107.846 70.3486 108.316C70.3486 108.785 70.18 109.174 69.8426 109.482C69.52 109.79 69.102 109.944 68.5886 109.944ZM67.1806 122.55V111.638H69.9966V122.55H67.1806ZM77.4459 122.814C76.4779 122.814 75.6272 122.66 74.8939 122.352C74.1605 122.029 73.5739 121.589 73.1339 121.032C72.6939 120.474 72.4299 119.829 72.3419 119.096H75.1799C75.2679 119.521 75.5025 119.888 75.8839 120.196C76.2799 120.489 76.7859 120.636 77.4019 120.636C78.0179 120.636 78.4652 120.511 78.7439 120.262C79.0372 120.012 79.1839 119.726 79.1839 119.404C79.1839 118.934 78.9785 118.619 78.5679 118.458C78.1572 118.282 77.5852 118.113 76.8519 117.952C76.3825 117.849 75.9059 117.724 75.4219 117.578C74.9379 117.431 74.4905 117.248 74.0799 117.028C73.6839 116.793 73.3612 116.5 73.1119 116.148C72.8625 115.781 72.7379 115.334 72.7379 114.806C72.7379 113.838 73.1192 113.024 73.8819 112.364C74.6592 111.704 75.7445 111.374 77.1379 111.374C78.4285 111.374 79.4552 111.674 80.2179 112.276C80.9952 112.877 81.4572 113.706 81.6039 114.762H78.9419C78.7805 113.955 78.1719 113.552 77.1159 113.552C76.5879 113.552 76.1772 113.654 75.8839 113.86C75.6052 114.065 75.4659 114.322 75.4659 114.63C75.4659 114.952 75.6785 115.209 76.1039 115.4C76.5292 115.59 77.0939 115.766 77.7979 115.928C78.5605 116.104 79.2572 116.302 79.8879 116.522C80.5332 116.727 81.0465 117.042 81.4279 117.468C81.8092 117.878 81.9999 118.472 81.9999 119.25C82.0145 119.924 81.8385 120.533 81.4719 121.076C81.1052 121.618 80.5772 122.044 79.8879 122.352C79.1985 122.66 78.3845 122.814 77.4459 122.814ZM89.8405 122.814C88.7258 122.814 87.7431 122.572 86.8925 122.088C86.0418 121.604 85.3671 120.929 84.8685 120.064C84.3845 119.198 84.1425 118.208 84.1425 117.094C84.1425 115.979 84.3845 114.989 84.8685 114.124C85.3671 113.258 86.0418 112.584 86.8925 112.1C87.7431 111.616 88.7258 111.374 89.8405 111.374C91.2338 111.374 92.4071 111.74 93.3605 112.474C94.3138 113.192 94.9225 114.19 95.1865 115.466H92.2165C92.0698 114.938 91.7765 114.527 91.3365 114.234C90.9111 113.926 90.4051 113.772 89.8185 113.772C89.0411 113.772 88.3811 114.065 87.8385 114.652C87.2958 115.238 87.0245 116.052 87.0245 117.094C87.0245 118.135 87.2958 118.949 87.8385 119.536C88.3811 120.122 89.0411 120.416 89.8185 120.416C90.4051 120.416 90.9111 120.269 91.3365 119.976C91.7765 119.682 92.0698 119.264 92.2165 118.722H95.1865C94.9225 119.954 94.3138 120.944 93.3605 121.692C92.4071 122.44 91.2338 122.814 89.8405 122.814ZM102.922 122.814C101.866 122.814 100.913 122.572 100.062 122.088C99.2259 121.604 98.5585 120.936 98.0599 120.086C97.5759 119.22 97.3339 118.223 97.3339 117.094C97.3339 115.964 97.5832 114.974 98.0819 114.124C98.5805 113.258 99.2479 112.584 100.084 112.1C100.935 111.616 101.888 111.374 102.944 111.374C103.985 111.374 104.924 111.616 105.76 112.1C106.611 112.584 107.278 113.258 107.762 114.124C108.261 114.974 108.51 115.964 108.51 117.094C108.51 118.223 108.261 119.22 107.762 120.086C107.278 120.936 106.611 121.604 105.76 122.088C104.909 122.572 103.963 122.814 102.922 122.814ZM102.922 120.372C103.655 120.372 104.293 120.1 104.836 119.558C105.379 119 105.65 118.179 105.65 117.094C105.65 116.008 105.379 115.194 104.836 114.652C104.293 114.094 103.663 113.816 102.944 113.816C102.196 113.816 101.551 114.094 101.008 114.652C100.48 115.194 100.216 116.008 100.216 117.094C100.216 118.179 100.48 119 101.008 119.558C101.551 120.1 102.189 120.372 102.922 120.372ZM113.439 122.55L109.435 111.638H112.383L115.155 119.888L117.927 111.638H120.875L116.849 122.55H113.439ZM127.416 122.814C126.316 122.814 125.34 122.579 124.49 122.11C123.639 121.64 122.972 120.98 122.488 120.13C122.004 119.279 121.762 118.296 121.762 117.182C121.762 116.052 121.996 115.048 122.466 114.168C122.95 113.288 123.61 112.606 124.446 112.122C125.296 111.623 126.294 111.374 127.438 111.374C128.508 111.374 129.454 111.608 130.276 112.078C131.097 112.547 131.735 113.192 132.19 114.014C132.659 114.82 132.894 115.722 132.894 116.72C132.894 116.881 132.886 117.05 132.872 117.226C132.872 117.402 132.864 117.585 132.85 117.776H124.556C124.614 118.626 124.908 119.294 125.436 119.778C125.978 120.262 126.631 120.504 127.394 120.504C127.966 120.504 128.442 120.379 128.824 120.13C129.22 119.866 129.513 119.528 129.704 119.118H132.564C132.358 119.807 132.014 120.438 131.53 121.01C131.06 121.567 130.474 122.007 129.77 122.33C129.08 122.652 128.296 122.814 127.416 122.814ZM127.438 113.662C126.748 113.662 126.14 113.86 125.612 114.256C125.084 114.637 124.746 115.224 124.6 116.016H130.034C129.99 115.297 129.726 114.725 129.242 114.3C128.758 113.874 128.156 113.662 127.438 113.662ZM135.262 122.55V111.638H137.77L138.034 113.684C138.43 112.98 138.965 112.422 139.64 112.012C140.329 111.586 141.136 111.374 142.06 111.374V114.344H141.268C140.652 114.344 140.102 114.439 139.618 114.63C139.134 114.82 138.753 115.15 138.474 115.62C138.21 116.089 138.078 116.742 138.078 117.578V122.55H135.262ZM156.509 122.814C154.969 122.814 153.62 122.476 152.461 121.802C151.317 121.127 150.415 120.196 149.755 119.008C149.11 117.805 148.787 116.419 148.787 114.85C148.787 113.28 149.11 111.902 149.755 110.714C150.415 109.511 151.317 108.572 152.461 107.898C153.62 107.223 154.969 106.886 156.509 106.886C158.034 106.886 159.376 107.223 160.535 107.898C161.694 108.572 162.596 109.511 163.241 110.714C163.886 111.902 164.209 113.28 164.209 114.85C164.209 116.419 163.886 117.805 163.241 119.008C162.596 120.196 161.694 121.127 160.535 121.802C159.376 122.476 158.034 122.814 156.509 122.814ZM156.509 120.284C157.976 120.284 159.142 119.8 160.007 118.832C160.887 117.864 161.327 116.536 161.327 114.85C161.327 113.163 160.887 111.836 160.007 110.868C159.142 109.9 157.976 109.416 156.509 109.416C155.042 109.416 153.869 109.9 152.989 110.868C152.109 111.836 151.669 113.163 151.669 114.85C151.669 116.536 152.109 117.864 152.989 118.832C153.869 119.8 155.042 120.284 156.509 120.284ZM170.721 122.814C169.357 122.814 168.301 122.388 167.553 121.538C166.82 120.687 166.453 119.44 166.453 117.798V111.638H169.247V117.534C169.247 118.472 169.438 119.191 169.819 119.69C170.201 120.188 170.802 120.438 171.623 120.438C172.401 120.438 173.039 120.159 173.537 119.602C174.051 119.044 174.307 118.267 174.307 117.27V111.638H177.123V122.55H174.637L174.417 120.702C174.08 121.347 173.589 121.86 172.943 122.242C172.313 122.623 171.572 122.814 170.721 122.814ZM180.014 122.55V111.638H182.522L182.786 113.684C183.182 112.98 183.717 112.422 184.392 112.012C185.081 111.586 185.888 111.374 186.812 111.374V114.344H186.02C185.404 114.344 184.854 114.439 184.37 114.63C183.886 114.82 183.505 115.15 183.226 115.62C182.962 116.089 182.83 116.742 182.83 117.578V122.55H180.014ZM50.506 150.55L56.138 135.15H59.306L64.938 150.55H61.946L60.714 146.986H54.708L53.454 150.55H50.506ZM55.478 144.786H59.944L57.7 138.384L55.478 144.786ZM71.6862 150.814C70.5715 150.814 69.5888 150.572 68.7382 150.088C67.8875 149.604 67.2128 148.929 66.7142 148.064C66.2302 147.198 65.9882 146.208 65.9882 145.094C65.9882 143.979 66.2302 142.989 66.7142 142.124C67.2128 141.258 67.8875 140.584 68.7382 140.1C69.5888 139.616 70.5715 139.374 71.6862 139.374C73.0795 139.374 74.2528 139.74 75.2062 140.474C76.1595 141.192 76.7682 142.19 77.0322 143.466H74.0622C73.9155 142.938 73.6222 142.527 73.1822 142.234C72.7568 141.926 72.2508 141.772 71.6642 141.772C70.8868 141.772 70.2268 142.065 69.6842 142.652C69.1415 143.238 68.8702 144.052 68.8702 145.094C68.8702 146.135 69.1415 146.949 69.6842 147.536C70.2268 148.122 70.8868 148.416 71.6642 148.416C72.2508 148.416 72.7568 148.269 73.1822 147.976C73.6222 147.682 73.9155 147.264 74.0622 146.722H77.0322C76.7682 147.954 76.1595 148.944 75.2062 149.692C74.2528 150.44 73.0795 150.814 71.6862 150.814ZM84.8776 150.814C83.7629 150.814 82.7802 150.572 81.9296 150.088C81.0789 149.604 80.4042 148.929 79.9056 148.064C79.4216 147.198 79.1796 146.208 79.1796 145.094C79.1796 143.979 79.4216 142.989 79.9056 142.124C80.4042 141.258 81.0789 140.584 81.9296 140.1C82.7802 139.616 83.7629 139.374 84.8776 139.374C86.2709 139.374 87.4442 139.74 88.3976 140.474C89.3509 141.192 89.9596 142.19 90.2236 143.466H87.2536C87.1069 142.938 86.8136 142.527 86.3736 142.234C85.9482 141.926 85.4422 141.772 84.8556 141.772C84.0782 141.772 83.4182 142.065 82.8756 142.652C82.3329 143.238 82.0616 144.052 82.0616 145.094C82.0616 146.135 82.3329 146.949 82.8756 147.536C83.4182 148.122 84.0782 148.416 84.8556 148.416C85.4422 148.416 85.9482 148.269 86.3736 147.976C86.8136 147.682 87.1069 147.264 87.2536 146.722H90.2236C89.9596 147.954 89.3509 148.944 88.3976 149.692C87.4442 150.44 86.2709 150.814 84.8776 150.814ZM98.025 150.814C96.925 150.814 95.9496 150.579 95.099 150.11C94.2483 149.64 93.581 148.98 93.097 148.13C92.613 147.279 92.371 146.296 92.371 145.182C92.371 144.052 92.6056 143.048 93.075 142.168C93.559 141.288 94.219 140.606 95.055 140.122C95.9056 139.623 96.903 139.374 98.047 139.374C99.1176 139.374 100.064 139.608 100.885 140.078C101.706 140.547 102.344 141.192 102.799 142.014C103.268 142.82 103.503 143.722 103.503 144.72C103.503 144.881 103.496 145.05 103.481 145.226C103.481 145.402 103.474 145.585 103.459 145.776H95.165C95.2236 146.626 95.517 147.294 96.045 147.778C96.5876 148.262 97.2403 148.504 98.003 148.504C98.575 148.504 99.0516 148.379 99.433 148.13C99.829 147.866 100.122 147.528 100.313 147.118H103.173C102.968 147.807 102.623 148.438 102.139 149.01C101.67 149.567 101.083 150.007 100.379 150.33C99.6896 150.652 98.905 150.814 98.025 150.814ZM98.047 141.662C97.3576 141.662 96.749 141.86 96.221 142.256C95.693 142.637 95.3556 143.224 95.209 144.016H100.643C100.599 143.297 100.335 142.725 99.851 142.3C99.367 141.874 98.7656 141.662 98.047 141.662ZM110.381 150.814C109.413 150.814 108.563 150.66 107.829 150.352C107.096 150.029 106.509 149.589 106.069 149.032C105.629 148.474 105.365 147.829 105.277 147.096H108.115C108.203 147.521 108.438 147.888 108.819 148.196C109.215 148.489 109.721 148.636 110.337 148.636C110.953 148.636 111.401 148.511 111.679 148.262C111.973 148.012 112.119 147.726 112.119 147.404C112.119 146.934 111.914 146.619 111.503 146.458C111.093 146.282 110.521 146.113 109.787 145.952C109.318 145.849 108.841 145.724 108.357 145.578C107.873 145.431 107.426 145.248 107.015 145.028C106.619 144.793 106.297 144.5 106.047 144.148C105.798 143.781 105.673 143.334 105.673 142.806C105.673 141.838 106.055 141.024 106.817 140.364C107.595 139.704 108.68 139.374 110.073 139.374C111.364 139.374 112.391 139.674 113.153 140.276C113.931 140.877 114.393 141.706 114.539 142.762H111.877C111.716 141.955 111.107 141.552 110.051 141.552C109.523 141.552 109.113 141.654 108.819 141.86C108.541 142.065 108.401 142.322 108.401 142.63C108.401 142.952 108.614 143.209 109.039 143.4C109.465 143.59 110.029 143.766 110.733 143.928C111.496 144.104 112.193 144.302 112.823 144.522C113.469 144.727 113.982 145.042 114.363 145.468C114.745 145.878 114.935 146.472 114.935 147.25C114.95 147.924 114.774 148.533 114.407 149.076C114.041 149.618 113.513 150.044 112.823 150.352C112.134 150.66 111.32 150.814 110.381 150.814ZM122.666 150.814C121.61 150.814 120.657 150.572 119.806 150.088C118.97 149.604 118.303 148.936 117.804 148.086C117.32 147.22 117.078 146.223 117.078 145.094C117.078 143.964 117.327 142.974 117.826 142.124C118.325 141.258 118.992 140.584 119.828 140.1C120.679 139.616 121.632 139.374 122.688 139.374C123.729 139.374 124.668 139.616 125.504 140.1C126.355 140.584 127.022 141.258 127.506 142.124C128.005 142.974 128.254 143.964 128.254 145.094C128.254 146.223 128.005 147.22 127.506 148.086C127.022 148.936 126.355 149.604 125.504 150.088C124.653 150.572 123.707 150.814 122.666 150.814ZM122.666 148.372C123.399 148.372 124.037 148.1 124.58 147.558C125.123 147 125.394 146.179 125.394 145.094C125.394 144.008 125.123 143.194 124.58 142.652C124.037 142.094 123.407 141.816 122.688 141.816C121.94 141.816 121.295 142.094 120.752 142.652C120.224 143.194 119.96 144.008 119.96 145.094C119.96 146.179 120.224 147 120.752 147.558C121.295 148.1 121.933 148.372 122.666 148.372ZM130.772 150.55V139.638H133.28L133.544 141.684C133.94 140.98 134.475 140.422 135.15 140.012C135.839 139.586 136.646 139.374 137.57 139.374V142.344H136.778C136.162 142.344 135.612 142.439 135.128 142.63C134.644 142.82 134.262 143.15 133.984 143.62C133.72 144.089 133.588 144.742 133.588 145.578V150.55H130.772ZM141.012 137.944C140.499 137.944 140.074 137.79 139.736 137.482C139.414 137.174 139.252 136.785 139.252 136.316C139.252 135.846 139.414 135.465 139.736 135.172C140.074 134.864 140.499 134.71 141.012 134.71C141.526 134.71 141.944 134.864 142.266 135.172C142.604 135.465 142.772 135.846 142.772 136.316C142.772 136.785 142.604 137.174 142.266 137.482C141.944 137.79 141.526 137.944 141.012 137.944ZM139.604 150.55V139.638H142.42V150.55H139.604ZM150.662 150.814C149.562 150.814 148.586 150.579 147.736 150.11C146.885 149.64 146.218 148.98 145.734 148.13C145.25 147.279 145.008 146.296 145.008 145.182C145.008 144.052 145.242 143.048 145.712 142.168C146.196 141.288 146.856 140.606 147.692 140.122C148.542 139.623 149.54 139.374 150.684 139.374C151.754 139.374 152.7 139.608 153.522 140.078C154.343 140.547 154.981 141.192 155.436 142.014C155.905 142.82 156.14 143.722 156.14 144.72C156.14 144.881 156.132 145.05 156.118 145.226C156.118 145.402 156.11 145.585 156.096 145.776H147.802C147.86 146.626 148.154 147.294 148.682 147.778C149.224 148.262 149.877 148.504 150.64 148.504C151.212 148.504 151.688 148.379 152.07 148.13C152.466 147.866 152.759 147.528 152.95 147.118H155.81C155.604 147.807 155.26 148.438 154.776 149.01C154.306 149.567 153.72 150.007 153.016 150.33C152.326 150.652 151.542 150.814 150.662 150.814ZM150.684 141.662C149.994 141.662 149.386 141.86 148.858 142.256C148.33 142.637 147.992 143.224 147.846 144.016H153.28C153.236 143.297 152.972 142.725 152.488 142.3C152.004 141.874 151.402 141.662 150.684 141.662ZM163.018 150.814C162.05 150.814 161.199 150.66 160.466 150.352C159.733 150.029 159.146 149.589 158.706 149.032C158.266 148.474 158.002 147.829 157.914 147.096H160.752C160.84 147.521 161.075 147.888 161.456 148.196C161.852 148.489 162.358 148.636 162.974 148.636C163.59 148.636 164.037 148.511 164.316 148.262C164.609 148.012 164.756 147.726 164.756 147.404C164.756 146.934 164.551 146.619 164.14 146.458C163.729 146.282 163.157 146.113 162.424 145.952C161.955 145.849 161.478 145.724 160.994 145.578C160.51 145.431 160.063 145.248 159.652 145.028C159.256 144.793 158.933 144.5 158.684 144.148C158.435 143.781 158.31 143.334 158.31 142.806C158.31 141.838 158.691 141.024 159.454 140.364C160.231 139.704 161.317 139.374 162.71 139.374C164.001 139.374 165.027 139.674 165.79 140.276C166.567 140.877 167.029 141.706 167.176 142.762H164.514C164.353 141.955 163.744 141.552 162.688 141.552C162.16 141.552 161.749 141.654 161.456 141.86C161.177 142.065 161.038 142.322 161.038 142.63C161.038 142.952 161.251 143.209 161.676 143.4C162.101 143.59 162.666 143.766 163.37 143.928C164.133 144.104 164.829 144.302 165.46 144.522C166.105 144.727 166.619 145.042 167 145.468C167.381 145.878 167.572 146.472 167.572 147.25C167.587 147.924 167.411 148.533 167.044 149.076C166.677 149.618 166.149 150.044 165.46 150.352C164.771 150.66 163.957 150.814 163.018 150.814ZM182.349 150.814C180.794 150.814 179.46 150.484 178.345 149.824C177.23 149.149 176.372 148.218 175.771 147.03C175.17 145.827 174.869 144.441 174.869 142.872C174.869 141.302 175.17 139.916 175.771 138.714C176.372 137.511 177.23 136.572 178.345 135.898C179.46 135.223 180.794 134.886 182.349 134.886C184.197 134.886 185.708 135.348 186.881 136.272C188.069 137.181 188.81 138.464 189.103 140.122H186.001C185.81 139.286 185.4 138.633 184.769 138.164C184.153 137.68 183.332 137.438 182.305 137.438C180.882 137.438 179.768 137.922 178.961 138.89C178.154 139.858 177.751 141.185 177.751 142.872C177.751 144.558 178.154 145.886 178.961 146.854C179.768 147.807 180.882 148.284 182.305 148.284C183.332 148.284 184.153 148.064 184.769 147.624C185.4 147.169 185.81 146.546 186.001 145.754H189.103C188.81 147.338 188.069 148.577 186.881 149.472C185.708 150.366 184.197 150.814 182.349 150.814ZM196.766 150.814C195.71 150.814 194.756 150.572 193.906 150.088C193.07 149.604 192.402 148.936 191.904 148.086C191.42 147.22 191.178 146.223 191.178 145.094C191.178 143.964 191.427 142.974 191.926 142.124C192.424 141.258 193.092 140.584 193.928 140.1C194.778 139.616 195.732 139.374 196.788 139.374C197.829 139.374 198.768 139.616 199.604 140.1C200.454 140.584 201.122 141.258 201.606 142.124C202.104 142.974 202.354 143.964 202.354 145.094C202.354 146.223 202.104 147.22 201.606 148.086C201.122 148.936 200.454 149.604 199.604 150.088C198.753 150.572 197.807 150.814 196.766 150.814ZM196.766 148.372C197.499 148.372 198.137 148.1 198.68 147.558C199.222 147 199.494 146.179 199.494 145.094C199.494 144.008 199.222 143.194 198.68 142.652C198.137 142.094 197.506 141.816 196.788 141.816C196.04 141.816 195.394 142.094 194.852 142.652C194.324 143.194 194.06 144.008 194.06 145.094C194.06 146.179 194.324 147 194.852 147.558C195.394 148.1 196.032 148.372 196.766 148.372ZM204.871 150.55V134.71H207.687V150.55H204.871ZM210.565 150.55V134.71H213.381V150.55H210.565ZM221.56 150.814C220.46 150.814 219.485 150.579 218.634 150.11C217.783 149.64 217.116 148.98 216.632 148.13C216.148 147.279 215.906 146.296 215.906 145.182C215.906 144.052 216.141 143.048 216.61 142.168C217.094 141.288 217.754 140.606 218.59 140.122C219.441 139.623 220.438 139.374 221.582 139.374C222.653 139.374 223.599 139.608 224.42 140.078C225.241 140.547 225.879 141.192 226.334 142.014C226.803 142.82 227.038 143.722 227.038 144.72C227.038 144.881 227.031 145.05 227.016 145.226C227.016 145.402 227.009 145.585 226.994 145.776H218.7C218.759 146.626 219.052 147.294 219.58 147.778C220.123 148.262 220.775 148.504 221.538 148.504C222.11 148.504 222.587 148.379 222.968 148.13C223.364 147.866 223.657 147.528 223.848 147.118H226.708C226.503 147.807 226.158 148.438 225.674 149.01C225.205 149.567 224.618 150.007 223.914 150.33C223.225 150.652 222.44 150.814 221.56 150.814ZM221.582 141.662C220.893 141.662 220.284 141.86 219.756 142.256C219.228 142.637 218.891 143.224 218.744 144.016H224.178C224.134 143.297 223.87 142.725 223.386 142.3C222.902 141.874 222.301 141.662 221.582 141.662ZM234.753 150.814C233.638 150.814 232.655 150.572 231.805 150.088C230.954 149.604 230.279 148.929 229.781 148.064C229.297 147.198 229.055 146.208 229.055 145.094C229.055 143.979 229.297 142.989 229.781 142.124C230.279 141.258 230.954 140.584 231.805 140.1C232.655 139.616 233.638 139.374 234.753 139.374C236.146 139.374 237.319 139.74 238.273 140.474C239.226 141.192 239.835 142.19 240.099 143.466H237.129C236.982 142.938 236.689 142.527 236.249 142.234C235.823 141.926 235.317 141.772 234.731 141.772C233.953 141.772 233.293 142.065 232.751 142.652C232.208 143.238 231.937 144.052 231.937 145.094C231.937 146.135 232.208 146.949 232.751 147.536C233.293 148.122 233.953 148.416 234.731 148.416C235.317 148.416 235.823 148.269 236.249 147.976C236.689 147.682 236.982 147.264 237.129 146.722H240.099C239.835 147.954 239.226 148.944 238.273 149.692C237.319 150.44 236.146 150.814 234.753 150.814ZM247.31 150.55C246.166 150.55 245.249 150.271 244.56 149.714C243.87 149.156 243.526 148.166 243.526 146.744V141.992H241.656V139.638H243.526L243.856 136.712H246.342V139.638H249.29V141.992H246.342V146.766C246.342 147.294 246.452 147.66 246.672 147.866C246.906 148.056 247.302 148.152 247.86 148.152H249.224V150.55H247.31ZM253.225 137.944C252.712 137.944 252.287 137.79 251.949 137.482C251.627 137.174 251.465 136.785 251.465 136.316C251.465 135.846 251.627 135.465 251.949 135.172C252.287 134.864 252.712 134.71 253.225 134.71C253.739 134.71 254.157 134.864 254.479 135.172C254.817 135.465 254.985 135.846 254.985 136.316C254.985 136.785 254.817 137.174 254.479 137.482C254.157 137.79 253.739 137.944 253.225 137.944ZM251.817 150.55V139.638H254.633V150.55H251.817ZM262.809 150.814C261.753 150.814 260.799 150.572 259.949 150.088C259.113 149.604 258.445 148.936 257.947 148.086C257.463 147.22 257.221 146.223 257.221 145.094C257.221 143.964 257.47 142.974 257.969 142.124C258.467 141.258 259.135 140.584 259.971 140.1C260.821 139.616 261.775 139.374 262.831 139.374C263.872 139.374 264.811 139.616 265.647 140.1C266.497 140.584 267.165 141.258 267.649 142.124C268.147 142.974 268.397 143.964 268.397 145.094C268.397 146.223 268.147 147.22 267.649 148.086C267.165 148.936 266.497 149.604 265.647 150.088C264.796 150.572 263.85 150.814 262.809 150.814ZM262.809 148.372C263.542 148.372 264.18 148.1 264.723 147.558C265.265 147 265.537 146.179 265.537 145.094C265.537 144.008 265.265 143.194 264.723 142.652C264.18 142.094 263.549 141.816 262.831 141.816C262.083 141.816 261.437 142.094 260.895 142.652C260.367 143.194 260.103 144.008 260.103 145.094C260.103 146.179 260.367 147 260.895 147.558C261.437 148.1 262.075 148.372 262.809 148.372ZM270.914 150.55V139.638H273.4L273.62 141.486C273.958 140.84 274.442 140.327 275.072 139.946C275.718 139.564 276.473 139.374 277.338 139.374C278.688 139.374 279.736 139.799 280.484 140.65C281.232 141.5 281.606 142.747 281.606 144.39V150.55H278.79V144.654C278.79 143.715 278.6 142.996 278.218 142.498C277.837 141.999 277.243 141.75 276.436 141.75C275.644 141.75 274.992 142.028 274.478 142.586C273.98 143.143 273.73 143.92 273.73 144.918V150.55H270.914Z" fill="#5D5A88"/>
</svg>
