<svg width="1220" height="262" viewBox="0 0 1220 262" fill="none" xmlns="http://www.w3.org/2000/svg">
<path d="M1046.08 87.0209C1046.08 69.8098 1051.18 52.9852 1060.73 38.6747C1070.29 24.3642 1083.87 13.2105 1099.76 6.62408C1115.65 0.037674 1133.14 -1.68562 1150 1.6721C1166.87 5.02982 1182.37 13.3178 1194.53 25.4879C1206.69 37.6579 1214.97 53.1636 1218.33 70.044C1221.68 86.9244 1219.96 104.421 1213.38 120.322C1206.8 136.223 1195.65 149.814 1181.35 159.376C1167.05 168.938 1150.24 174.042 1133.04 174.042V87.0209H1046.08Z" fill="#ED4F81"/>
<path d="M1045.65 87.4453C1028.45 87.4453 1011.64 92.549 997.341 102.111C983.04 111.673 971.894 125.264 965.312 141.165C958.73 157.066 957.008 174.563 960.364 191.443C963.719 208.324 972.001 223.829 984.163 235.999C996.325 248.169 1011.82 256.457 1028.69 259.815C1045.56 263.173 1063.04 261.45 1078.93 254.863C1094.82 248.277 1108.4 237.123 1117.96 222.812C1127.51 208.502 1132.61 191.677 1132.61 174.466L1045.65 174.466V87.4453Z" fill="#FFCA09"/>
<path d="M785.195 261.487C796.615 261.487 807.923 259.236 818.473 254.863C829.024 250.49 838.611 244.08 846.686 235.999C854.761 227.919 861.166 218.326 865.536 207.768C869.907 197.21 872.156 185.894 872.156 174.466C872.156 163.038 869.907 151.723 865.536 141.165C861.166 130.607 854.761 121.014 846.686 112.933C838.61 104.853 829.024 98.4426 818.473 94.0694C807.923 89.6962 796.615 87.4453 785.195 87.4453L785.195 174.466V261.487Z" fill="#FFCA09"/>
<path d="M871.731 1.52588e-05C860.311 1.52588e-05 849.003 2.25089 838.453 6.62408C827.902 10.9973 818.316 17.4072 810.241 25.4879C802.165 33.5685 795.76 43.1616 791.39 53.7195C787.02 64.2773 784.77 75.5932 784.77 87.021L871.731 87.0209V1.52588e-05Z" fill="#ED4F81"/>
<path d="M871.732 87.4453C883.151 87.4453 894.46 89.6962 905.01 94.0694C915.561 98.4426 925.147 104.853 933.222 112.933C941.297 121.014 947.703 130.607 952.073 141.165C956.443 151.723 958.693 163.039 958.693 174.466L871.732 174.466V87.4453Z" fill="#18BAEB"/>
<ellipse cx="958.268" cy="58.1555" rx="58.1154" ry="58.1555" transform="rotate(180 958.268 58.1555)" fill="#848688"/>
<path d="M784.77 87.4454C736.509 87.4454 697.385 48.2615 697.385 7.62939e-06C745.647 7.62939e-06 784.77 39.1839 784.77 87.4454Z" fill="#FFCA09"/>
<path d="M610 87.4454C658.262 87.4454 697.385 48.2615 697.385 7.62939e-06C649.124 7.62939e-06 610 39.1839 610 87.4454Z" fill="#18BAEB"/>
<path d="M784.77 87.4454C736.509 87.4454 697.385 126.629 697.385 174.891C745.647 174.891 784.77 135.707 784.77 87.4454Z" fill="#848688"/>
<path d="M610 87.4454C658.262 87.4454 697.385 126.629 697.385 174.891C649.124 174.891 610 135.707 610 87.4454Z" fill="#ED4F81"/>
<path d="M436.078 87.0209C436.078 69.8098 441.178 52.9852 450.733 38.6747C460.289 24.3642 473.87 13.2105 489.76 6.62408C505.65 0.037674 523.135 -1.68562 540.004 1.6721C556.873 5.02982 572.368 13.3178 584.53 25.4879C596.691 37.6579 604.974 53.1636 608.329 70.044C611.684 86.9244 609.962 104.421 603.38 120.322C596.798 136.223 585.652 149.814 571.352 159.376C557.051 168.938 540.238 174.042 523.039 174.042V87.0209H436.078Z" fill="#ED4F81"/>
<path d="M435.654 87.4453C418.454 87.4453 401.641 92.549 387.341 102.111C373.04 111.673 361.894 125.264 355.312 141.165C348.73 157.066 347.008 174.563 350.363 191.443C353.719 208.324 362.001 223.829 374.163 235.999C386.325 248.169 401.82 256.457 418.688 259.815C435.557 263.173 453.042 261.45 468.932 254.863C484.822 248.277 498.404 237.123 507.959 222.812C517.514 208.502 522.615 191.677 522.615 174.466L435.654 174.466V87.4453Z" fill="#FFCA09"/>
<path d="M175.195 261.487C186.615 261.487 197.923 259.236 208.473 254.863C219.024 250.49 228.61 244.08 236.685 235.999C244.761 227.919 251.166 218.326 255.536 207.768C259.906 197.21 262.156 185.894 262.156 174.466C262.156 163.038 259.906 151.723 255.536 141.165C251.166 130.607 244.761 121.014 236.685 112.933C228.61 104.853 219.024 98.4426 208.473 94.0694C197.923 89.6962 186.615 87.4453 175.195 87.4453L175.195 174.466V261.487Z" fill="#FFCA09"/>
<path d="M261.732 1.52588e-05C250.312 1.52588e-05 239.004 2.25089 228.453 6.62408C217.902 10.9973 208.316 17.4072 200.241 25.4879C192.166 33.5685 185.76 43.1616 181.39 53.7195C177.02 64.2773 174.771 75.5932 174.771 87.021L261.732 87.0209V1.52588e-05Z" fill="#ED4F81"/>
<path d="M261.731 87.4453C273.151 87.4453 284.459 89.6962 295.01 94.0694C305.561 98.4426 315.147 104.853 323.222 112.933C331.297 121.014 337.703 130.607 342.073 141.165C346.443 151.723 348.693 163.039 348.693 174.466L261.731 174.466V87.4453Z" fill="#18BAEB"/>
<ellipse cx="348.268" cy="58.1555" rx="58.1154" ry="58.1555" transform="rotate(180 348.268 58.1555)" fill="#848688"/>
<path d="M174.771 87.4454C126.509 87.4454 87.3853 48.2615 87.3853 7.62939e-06C135.647 7.62939e-06 174.771 39.1839 174.771 87.4454Z" fill="#FFCA09"/>
<path d="M0 87.4454C48.2615 87.4454 87.3852 48.2615 87.3852 7.62939e-06C39.1237 7.62939e-06 0 39.1839 0 87.4454Z" fill="#18BAEB"/>
<path d="M174.771 87.4454C126.509 87.4454 87.3853 126.629 87.3853 174.891C135.647 174.891 174.771 135.707 174.771 87.4454Z" fill="#848688"/>
<path d="M0 87.4454C48.2615 87.4454 87.3852 126.629 87.3852 174.891C39.1237 174.891 0 135.707 0 87.4454Z" fill="#ED4F81"/>
</svg>
