<svg width="16" height="17" viewBox="0 0 16 17" fill="none" xmlns="http://www.w3.org/2000/svg">
<path d="M13 2H4.5C3.97007 2.00165 3.46232 2.21289 3.08761 2.58761C2.71289 2.96232 2.50165 3.47007 2.5 4V14.5C2.5 14.6326 2.55268 14.7598 2.64645 14.8536C2.74021 14.9473 2.86739 15 3 15H12C12.1326 15 12.2598 14.9473 12.3536 14.8536C12.4473 14.7598 12.5 14.6326 12.5 14.5C12.5 14.3674 12.4473 14.2402 12.3536 14.1464C12.2598 14.0527 12.1326 14 12 14H3.5C3.5 13.7348 3.60536 13.4804 3.79289 13.2929C3.98043 13.1054 4.23478 13 4.5 13H13C13.1326 13 13.2598 12.9473 13.3536 12.8536C13.4473 12.7598 13.5 12.6326 13.5 12.5V2.5C13.5 2.36739 13.4473 2.24021 13.3536 2.14645C13.2598 2.05268 13.1326 2 13 2ZM11.5 8L9.9 6.8C9.85715 6.76655 9.80436 6.74838 9.75 6.74838C9.69564 6.74838 9.64285 6.76655 9.6 6.8L8 8V3H11.5V8Z" fill="#1E1E1E" fill-opacity="0.6"/>
</svg>
